<svg xmlns="http://www.w3.org/2000/svg" width="101.304" height="99.5" viewBox="0 0 101.304 99.5">
  <g id="Group_3333" data-name="Group 3333" transform="translate(20330.738 10103.332)">
    <g id="Group_3076" data-name="Group 3076" transform="translate(-20294.041 -10080.246)">
      <path id="Path_13161" data-name="Path 13161" d="M5.674,14.034,3.65,11.744C2.3,10.22.02,7.375-2.4,4.364-4.669,1.531-7.018-1.394-8.269-2.807l4.8-4.246C-2.118-5.525.174-2.669,2.6.353,3.954,2.04,5.337,3.76,6.493,5.175,10.731,1.825,16.314-2.5,21.743-6.7c6.534-5.057,13.29-10.286,17.609-13.752l4.011,5C39-11.955,32.221-6.707,25.663-1.632,19.129,3.425,12.375,8.655,8.056,12.12Z" transform="translate(8.269 20.453)" fill="#fff"/>
    </g>
    <path id="Path_13163" data-name="Path 13163" d="M2.607,2.607V89.158H25.371l.067,6.407H-3.8V-3.8H45.6V2.607Z" transform="translate(-20326.938 -10099.532)" fill="#fff"/>
    <path id="Path_13164" data-name="Path 13164" d="M12.227,2.607h-29.98l-.067-6.273V-3.8H12.16v.135Z" transform="translate(-20277.34 -10006.574)" fill="#230f56"/>
    <path id="Path_13165" data-name="Path 13165" d="M11.939,0V47.82H-17.333l-.067-6.407H5.532V0Z" transform="translate(-20241.373 -10051.785)" fill="#fff"/>
    <path id="Path_13166" data-name="Path 13166" d="M12.227,2.607v.135h-29.98V2.607l-.067-6.273V-3.8H12.16v.135Z" transform="translate(-20277.34 -10006.574)" fill="#34cf2c"/>
    <path id="Path_13167" data-name="Path 13167" d="M12.227,2.553v.135h-29.98V2.553L-17.82-3.72H12.16Z" transform="translate(-20277.34 -10006.52)" fill="#34cf2c"/>
  </g>
</svg>
