<svg xmlns="http://www.w3.org/2000/svg" width="145.009" height="165.56" viewBox="0 0 145.009 165.56">
  <g id="Group_3396" data-name="Group 3396" transform="translate(-267.064 -3220.476)">
    <path id="Path_13455" data-name="Path 13455" d="M0,0V50.049H50.931V40.477H9.6V0Z" transform="translate(267.064 3335.985)" fill="#45d33d"/>
    <g id="Group_3361" data-name="Group 3361" transform="translate(320.161 3240.175)">
      <path id="Path_13190" data-name="Path 13190" d="M24.575,5.771A10.252,10.252,0,0,1,24.5,4.512,10.9,10.9,0,0,1,25.078.986,11.267,11.267,0,0,1,28.252-3.8H-16.18A11.267,11.267,0,0,1-13.006.986a10.9,10.9,0,0,1,.579,3.526A10.253,10.253,0,0,1-12.5,5.771Z" transform="translate(16.18 3.8)" fill="#231356"/>
    </g>
    <path id="Path_13456" data-name="Path 13456" d="M402.347-58.865h-9.572v9.571h9.572Z" transform="translate(-25.687 3299.039)" fill="#231356"/>
    <g id="Group_3362" data-name="Group 3362" transform="translate(327.592 3240.172)">
      <path id="Path_13193" data-name="Path 13193" d="M31.09,0a11.094,11.094,0,0,1,3.2,4.786,10.9,10.9,0,0,1,.579,3.526,10.252,10.252,0,0,1-.076,1.259H54.44V136.292H-20.47v9.571H64.011V0Z" transform="translate(20.47)" fill="#231356"/>
    </g>
    <g id="Group_3363" data-name="Group 3363" transform="translate(267.067 3240.175)">
      <path id="Path_13194" data-name="Path 13194" d="M5.787,5.771H31.025a10.252,10.252,0,0,1-.076-1.259A10.9,10.9,0,0,1,31.529.986a11.094,11.094,0,0,1,3.2-4.786H-3.81V82.444h9.6Z" transform="translate(3.81 3.8)" fill="#231356"/>
    </g>
    <path id="Path_13457" data-name="Path 13457" d="M378.927-58.865h-9.572v9.571h9.572Z" transform="translate(-61.258 3299.039)" fill="#231356"/>
    <path id="Path_13458" data-name="Path 13458" d="M386.076-15.059H363.835V-37.325h22.241Z" transform="translate(-69.64 3331.753)" fill="#231356"/>
    <path id="Path_13459" data-name="Path 13459" d="M386.076,1.561H363.835V-20.7h22.241Z" transform="translate(-69.64 3356.995)" fill="#231356"/>
    <path id="Path_13460" data-name="Path 13460" d="M399.7-15.059H377.435V-37.325H399.7Z" transform="translate(-48.985 3331.753)" fill="#231356"/>
    <path id="Path_13461" data-name="Path 13461" d="M399.7,1.561H377.435V-20.7H399.7Z" transform="translate(-48.985 3356.995)" fill="#231356"/>
    <path id="Path_13462" data-name="Path 13462" d="M413.3-15.059H391.035V-37.325H413.3Z" transform="translate(-28.329 3331.753)" fill="#231356"/>
    <path id="Path_13463" data-name="Path 13463" d="M402.347-48.3h-9.572v-8.665h9.572Z" transform="translate(-25.687 3301.924)" fill="#231356"/>
    <path id="Path_13464" data-name="Path 13464" d="M378.927-48.3h-9.572v-8.665h9.572Z" transform="translate(-61.258 3301.924)" fill="#231356"/>
    <g id="Group_3364" data-name="Group 3364" transform="translate(267.845 3244.96)">
      <path id="Path_13204" data-name="Path 13204" d="M82.32,0V32.367H-54.2V0h34.558a10.9,10.9,0,0,0-.579,3.526,10.253,10.253,0,0,0,.076,1.259A11.065,11.065,0,0,0-9.163,14.559,11.04,11.04,0,0,0,1.793,4.786a10.253,10.253,0,0,0,.076-1.259A10.9,10.9,0,0,0,1.29,0H39.374a10.9,10.9,0,0,0-.579,3.526,10.252,10.252,0,0,0,.076,1.259,11.043,11.043,0,0,0,21.939,0,10.253,10.253,0,0,0,.076-1.259A10.9,10.9,0,0,0,60.306,0Z" transform="translate(54.2)" fill="#231356"/>
    </g>
    <g id="Group_3365" data-name="Group 3365" transform="translate(308.096 3237.426)">
      <path id="Path_13205" data-name="Path 13205" d="M5.772.668V15.756H-3.8V.668a10.887,10.887,0,0,1,9.572,0" transform="translate(3.8 0.44)" fill="#231356"/>
    </g>
    <g id="Group_3366" data-name="Group 3366" transform="translate(367.086 3237.426)">
      <path id="Path_13206" data-name="Path 13206" d="M5.772.668V15.756H-3.8V.668a10.887,10.887,0,0,1,9.572,0" transform="translate(3.8 0.44)" fill="#231356"/>
    </g>
    <path id="Path_13465" data-name="Path 13465" d="M378.927-33.538h-9.572V-66.685h9.572Z" transform="translate(-61.258 3287.161)" fill="#231356"/>
    <path id="Path_13466" data-name="Path 13466" d="M402.347-33.538h-9.572V-66.685h9.572Z" transform="translate(-25.687 3287.161)" fill="#231356"/>
    <path id="Path_13467" data-name="Path 13467" d="M14.429,2.4,12.338,7.009,2.993,27.462-.785,35.774-9.5,31.794l1.99-4.332L5.739-1.58l.378.176Z" transform="translate(373.136 3349.004)" fill="#231356"/>
    <path id="Path_13468" data-name="Path 13468" d="M19.365,5.635,10.751,7.574l-17.027,3.8-4.383.982L-12.75,3.015l.252-.05L10.751-2.249,17.274-3.71Z" transform="translate(391.75 3344.632)" fill="#231356"/>
  </g>
</svg>
