<svg xmlns="http://www.w3.org/2000/svg" width="183.136" height="165.559" viewBox="0 0 183.136 165.559">
  <g id="Group_3398" data-name="Group 3398" transform="translate(16726.32 8942.32)">
    <g id="Group_3144" data-name="Group 3144" transform="translate(-16633.963 -8942.32)">
      <path id="Path_13251" data-name="Path 13251" d="M-21.853,9.047A13.62,13.62,0,0,1-9.225.518H-5A13.675,13.675,0,0,1,6.542-5.91,13.643,13.643,0,0,1,18.082.518h4.252a13.628,13.628,0,0,1,0,27.256H-9.225a13.656,13.656,0,0,1-12.831-9.111,13.526,13.526,0,0,1-.785-4.53,13.493,13.493,0,0,1,.987-5.087m32.267-2.4a4,4,0,0,0-7.719,0l-.709,2.4-.3,1.063H-9.225a4.012,4.012,0,0,0-4,4.024,4.007,4.007,0,0,0,4,4H22.334a4.011,4.011,0,0,0,0-8.022H11.4l-.3-1.063Z" transform="translate(22.84 5.91)" fill="#231356"/>
    </g>
    <g id="Group_3145" data-name="Group 3145" transform="translate(-16665.951 -8927.363)">
      <path id="Path_13252" data-name="Path 13252" d="M30.755,0l-.3,1.063H19.544a4.011,4.011,0,0,0,0,8.022H51.1a4.011,4.011,0,0,0,0-8.022H40.17L39.866,0H96.707V150.5H33.59V140.86H87.065V9.617H-16.443v46.11H-26.06V0ZM14.609,140.86v3.492A6.251,6.251,0,0,1,9.5,150.5H-.879a6.251,6.251,0,0,1-5.112-6.15V140.86Zm-31.052-3.467H-26.06V97.711h9.617Z" transform="translate(26.06)" fill="#231356"/>
    </g>
    <g id="Group_3146" data-name="Group 3146" transform="translate(-16628.295 -8853.39)">
      <path id="Path_13253" data-name="Path 13253" d="M-4.715,13.271a6.672,6.672,0,0,0,9.187,2.075l1.088-.709,4.226-2.683V-8.67L-3.07-.9C-2.362.39-1.628,1.706-.919,3L-2.64,4.085A6.684,6.684,0,0,0-5.7,9.146a6.63,6.63,0,0,0,.987,4.125" transform="translate(5.73 8.67)" fill="#231356"/>
    </g>
    <g id="Group_3147" data-name="Group 3147" transform="translate(-16645.881 -8805.46)">
      <path id="Path_13254" data-name="Path 13254" d="M-8.14,2.327v18.6a6.251,6.251,0,0,0,5.112,6.15,5.363,5.363,0,0,0,1.114.1H6.235a5.363,5.363,0,0,0,1.114-.1,6.251,6.251,0,0,0,5.112-6.15V2.327A6.258,6.258,0,0,0,11.144-1.52H-6.824A6.258,6.258,0,0,0-8.14,2.327" transform="translate(8.14 1.52)" fill="#231356"/>
    </g>
    <g id="Group_3148" data-name="Group 3148" transform="translate(-16691.938 -8829.651)">
      <path id="Path_13255" data-name="Path 13255" d="M-11.139,10.394V17.4h-2.1V42.2a6.282,6.282,0,0,0,.456-2.354v-6.96H22.368V-6.79H-13.24v16.7Z" transform="translate(13.24 6.79)" fill="#231356"/>
    </g>
    <g id="Group_3149" data-name="Group 3149" transform="translate(-16645.881 -8805.46)">
      <path id="Path_13256" data-name="Path 13256" d="M-8.14,2.327v18.6a6.251,6.251,0,0,0,5.112,6.15,5.363,5.363,0,0,0,1.114.1H6.235a5.363,5.363,0,0,0,1.114-.1,6.251,6.251,0,0,0,5.112-6.15V2.327A6.258,6.258,0,0,0,11.144-1.52H-6.824A6.258,6.258,0,0,0-8.14,2.327" transform="translate(8.14 1.52)" fill="#231356"/>
    </g>
    <g id="Group_3150" data-name="Group 3150" transform="translate(-16726.32 -8845.255)">
      <path id="Path_13257" data-name="Path 13257" d="M-3.2,7.424l4.631,2.91,1.088.683A6.653,6.653,0,0,0,9.609-.244L7.888-1.332,3.915-3.838A6.671,6.671,0,0,0,.372-4.85,6.672,6.672,0,0,0-5.271-1.763,6.694,6.694,0,0,0-3.2,7.424" transform="translate(6.289 4.85)" fill="#231356"/>
    </g>
    <g id="Group_3151" data-name="Group 3151" transform="translate(-16712.086 -8806.979)">
      <path id="Path_13258" data-name="Path 13258" d="M-8.14,3.245v18.6A6.243,6.243,0,0,0-1.914,28.1H6.235a6.237,6.237,0,0,0,6.226-6.251V3.245A5.968,5.968,0,0,0,12,.917,7.544,7.544,0,0,0,11.144-.6H-5.027L-5-2.12A6.192,6.192,0,0,0-8.14,3.245" transform="translate(8.14 2.12)" fill="#231356"/>
    </g>
    <g id="Group_3152" data-name="Group 3152" transform="translate(-16645.881 -8805.46)">
      <path id="Path_13259" data-name="Path 13259" d="M-8.14,2.327V13.968h20.6V2.327A6.258,6.258,0,0,0,11.144-1.52H-6.824A6.258,6.258,0,0,0-8.14,2.327" transform="translate(8.14 1.52)" fill="#231356"/>
    </g>
    <path id="Path_13261" data-name="Path 13261" d="M-4.39,24H6.72V-15.68H-3.833Z" transform="translate(-16663.055 -8813.974)" fill="#231356"/>
    <g id="Group_3155" data-name="Group 3155" transform="translate(-16719.197 -8862.073)">
      <path id="Path_13262" data-name="Path 13262" d="M-43.424,20.022v39h7.111V47.379a6.192,6.192,0,0,1,3.138-5.365l.152-9.92,16.855,3.948v-16.7H-33.124c4.733-8.579,9.516-17.158,14.248-25.788H34.877c4.733,8.63,9.516,17.209,14.248,25.788H19.44V59.02H29.892V47.379a6.258,6.258,0,0,1,1.316-3.847H30.17v-7.01l18.981-4.429.177,11.439h-.152a6.258,6.258,0,0,1,1.316,3.847V59.02h8.883v-39c-.2-.354-.4-.734-.607-1.114l4.226-2.683.38-.2a6.7,6.7,0,0,0,2.075-9.212,5.1,5.1,0,0,0-.81-.987,5.711,5.711,0,0,0-1.645-1.291,7.013,7.013,0,0,0-3.189-.81,6.817,6.817,0,0,0-3.518,1.012l-4,2.531c-.709-1.291-1.443-2.607-2.151-3.9-2.075-3.72-4.125-7.491-6.2-11.186-.962-1.772-1.949-3.518-2.91-5.264-9.212,0-18.424.051-27.636.025q-19.095,0-38.189-.025h-.3C-28.847-6.3-32.593.459-36.364,7.267l1.721,1.088a6.644,6.644,0,0,1,2.075,9.187,6.642,6.642,0,0,1-9.161,2.075l-1.088-.709c-.2.38-.4.759-.607,1.114" transform="translate(43.424 13.08)" fill="#231356"/>
    </g>
    <g id="Group_3156" data-name="Group 3156" transform="translate(-16712.086 -8829.653)">
      <path id="Path_13263" data-name="Path 13263" d="M-19.22,16.96V28.6H28.586l.835-39.682H.925v16.7l2.1.481v7.01H-16.107l.025-1.518A6.192,6.192,0,0,0-19.22,16.96" transform="translate(19.22 11.08)" fill="#231356"/>
    </g>
    <g id="Group_3157" data-name="Group 3157" transform="translate(-16718.596 -8841.735)">
      <path id="Path_13264" data-name="Path 13264" d="M-4.459,7.055l1.088.683a6.641,6.641,0,0,0,9.16-2.075A6.646,6.646,0,0,0,3.714-3.522L1.993-4.61c-2.151,3.9-4.3,7.768-6.452,11.665" transform="translate(4.459 4.61)" fill="#231356"/>
    </g>
    <g id="Group_3158" data-name="Group 3158" transform="translate(-16645.881 -8805.46)">
      <path id="Path_13265" data-name="Path 13265" d="M-8.14,2.327V13.968h20.6V2.327A6.258,6.258,0,0,0,11.144-1.52H-6.824A6.258,6.258,0,0,0-8.14,2.327" transform="translate(8.14 1.52)" fill="#231356"/>
    </g>
    <path id="Path_13267" data-name="Path 13267" d="M-4.39,24H6.72V-15.68H-3.833Z" transform="translate(-16663.055 -8813.974)" fill="#231356"/>
    <g id="Group_3161" data-name="Group 3161" transform="translate(-16625.637 -8864.555)">
      <path id="Path_13268" data-name="Path 13268" d="M-22.43,11.45c.709,1.291,1.443,2.607,2.151,3.9l4-2.531A6.817,6.817,0,0,1-12.763,11.8a7.013,7.013,0,0,1,3.189.81A5.711,5.711,0,0,1-7.929,13.9L1.03,8.489l3.037,26.8L34.335,13.8,28.767,5.958,11.786,18.03,8.9-7.48-9.574,3.681Z" transform="translate(22.43 7.48)" fill="#45d33d"/>
    </g>
  </g>
</svg>
