<svg id="Group_49" data-name="Group 49" xmlns="http://www.w3.org/2000/svg" width="18.251" height="18.48" viewBox="0 0 18.251 18.48">
  <g id="Group_45" data-name="Group 45" transform="translate(0 0)">
    <path id="Path_81" data-name="Path 81" d="M18.115,4.891h-1.04V3.828a.675.675,0,1,0-1.35,0V4.891H9V3.828a.675.675,0,0,0-1.35,0V4.891H6.612A3.374,3.374,0,0,0,3.238,8.265v9.995a3.374,3.374,0,0,0,3.374,3.374h11.5a3.374,3.374,0,0,0,3.374-3.374V8.265A3.374,3.374,0,0,0,18.115,4.891Zm-11.5,1.35h11.5a2.024,2.024,0,0,1,2.024,2.024v.507H4.588V8.265A2.024,2.024,0,0,1,6.612,6.241Zm11.5,14.043H6.612a2.024,2.024,0,0,1-2.024-2.024V10.122H20.139v8.138a2.024,2.024,0,0,1-2.024,2.024ZM8.073,13.054a.675.675,0,1,1-.954,0A.675.675,0,0,1,8.073,13.054Zm3.178,0a.675.675,0,1,1-.954,0A.675.675,0,0,1,11.251,13.054Zm3.178,0a.675.675,0,1,1-.954,0,.675.675,0,0,1,.954,0Zm3.178,0a.675.675,0,1,1-.954,0,.675.675,0,0,1,.954,0ZM8.073,16.4a.675.675,0,1,1-.954,0A.675.675,0,0,1,8.073,16.4Zm3.178,0a.675.675,0,1,1-.954,0A.675.675,0,0,1,11.251,16.4Zm3.178,0a.675.675,0,1,1-.954,0,.675.675,0,0,1,.954,0Z" transform="translate(-3.238 -3.153)" fill="#45d33d"/>
  </g>
</svg>
