<svg xmlns="http://www.w3.org/2000/svg" width="19.35" height="24.916" viewBox="0 0 19.35 24.916">
  <path id="Path_12860" data-name="Path 12860" d="M184.114,73.166a2.861,2.861,0,0,1-1.031-.2l-.025-.01a20.15,20.15,0,0,1-9.708-8.469,21.281,21.281,0,0,1-3.314-11.932v-.008A3.371,3.371,0,0,1,171.7,49.61a9.737,9.737,0,0,1,2.887-1.009c.377-.089.733-.174,1.064-.27a1.969,1.969,0,0,1,2.51,1.717l.727,4.32c.313,1.229-.653,1.972-1.36,2.517-.99.762-1.276,1.047-.709,1.959l3.06,4.917c.565.907.943.779,2.055.238a5.231,5.231,0,0,1,1.265-.487,1.813,1.813,0,0,1,1.585.395l3.646,2.643a1.969,1.969,0,0,1,.431,3.01c-.2.22-.417.48-.646.755a12.3,12.3,0,0,1-2.065,2.106,3.466,3.466,0,0,1-2.041.745Zm-.455-1.662a1.277,1.277,0,0,0,.451.083c.918,0,1.833-1,2.9-2.28.241-.289.469-.562.694-.809a.394.394,0,0,0-.094-.608l-.035-.021L183.8,65.136l-.031-.028c-.133-.12-.326-.092-1.142.306a4.391,4.391,0,0,1-1.895.582h0a2.554,2.554,0,0,1-2.185-1.4l-3.061-4.918a2.551,2.551,0,0,1-.289-2.592,4.435,4.435,0,0,1,1.374-1.446c.6-.465.848-.692.792-.893l-.011-.039-.007-.04-.746-4.429,0-.04a.394.394,0,0,0-.5-.353c-.369.107-.761.2-1.141.29-2.043.484-3.3.862-3.344,2.456a19.746,19.746,0,0,0,3.077,11.07,18.66,18.66,0,0,0,8.972,7.845Z" transform="translate(-170.032 -48.25)" fill="#45d33d"/>
</svg>
