<svg xmlns="http://www.w3.org/2000/svg" width="20.271" height="26.103" viewBox="0 0 20.271 26.103">
  <path id="Path_17596" data-name="Path 17596" d="M184.784,74.352a3,3,0,0,1-1.08-.206l-.026-.011a21.109,21.109,0,0,1-10.17-8.872,22.3,22.3,0,0,1-3.472-12.5v-.009a3.531,3.531,0,0,1,1.748-3.081,10.2,10.2,0,0,1,3.024-1.057c.395-.094.768-.182,1.115-.282a2.062,2.062,0,0,1,2.63,1.8l.762,4.526c.328,1.287-.684,2.066-1.425,2.637-1.037.8-1.337,1.1-.743,2.052l3.206,5.151c.592.95.988.816,2.153.249a5.48,5.48,0,0,1,1.325-.51,1.9,1.9,0,0,1,1.661.414l3.82,2.769a2.063,2.063,0,0,1,.451,3.153c-.21.23-.437.5-.677.791a12.882,12.882,0,0,1-2.163,2.207,3.631,3.631,0,0,1-2.138.781Zm-.477-1.741a1.338,1.338,0,0,0,.472.087c.962,0,1.921-1.046,3.039-2.389.253-.3.491-.589.727-.847a.413.413,0,0,0-.1-.637l-.037-.022-3.952-2.864-.033-.029c-.14-.126-.341-.1-1.2.321a4.6,4.6,0,0,1-1.985.61h0a2.676,2.676,0,0,1-2.289-1.47l-3.207-5.152a2.672,2.672,0,0,1-.3-2.715,4.646,4.646,0,0,1,1.439-1.515c.633-.487.888-.725.83-.936l-.011-.041-.007-.042-.781-4.64,0-.042a.413.413,0,0,0-.528-.37c-.387.112-.8.209-1.2.3-2.141.507-3.456.9-3.5,2.573a20.686,20.686,0,0,0,3.223,11.6,19.549,19.549,0,0,0,9.4,8.218Z" transform="translate(-170.032 -48.25)" fill="#fff"/>
</svg>
