<svg xmlns="http://www.w3.org/2000/svg" width="30.271" height="30.28" viewBox="0 0 30.271 30.28">
  <path id="Path_12937" data-name="Path 12937" d="M20.788,1.1A15.351,15.351,0,0,0,15.136,0,15.112,15.112,0,0,0,.126,13.255C.063,13.883,0,14.512,0,15.14A15.136,15.136,0,1,0,20.788,1.1Zm-.5,14.889-4.742,4.743h0a.657.657,0,0,1-.188.126h0a.465.465,0,0,1-.22.031h0c-.063,0-.157-.031-.22-.031h0c-.063-.031-.157-.063-.188-.126L9.986,15.988a.6.6,0,0,1,.848-.848l3.737,3.738V8.889a.6.6,0,1,1,1.193,0v9.989L19.5,15.14a.579.579,0,1,1,.785.848Z" fill="#fff"/>
</svg>
