<svg xmlns="http://www.w3.org/2000/svg" width="33.612" height="44.797" viewBox="0 0 33.612 44.797">
  <g id="Group_4692" data-name="Group 4692" transform="translate(-880.417 -2122.008)">
    <path id="Path_13174" data-name="Path 13174" d="M-5.718,0A10.855,10.855,0,0,0-16.56,10.842,10.855,10.855,0,0,0-5.718,21.684,10.856,10.856,0,0,0,5.13,10.842,10.856,10.856,0,0,0-5.718,0m0,19.2a8.364,8.364,0,0,1-8.354-8.354A8.364,8.364,0,0,1-5.718,2.488a8.36,8.36,0,0,1,8.354,8.354A8.36,8.36,0,0,1-5.718,19.2" transform="translate(902.424 2122.008)" fill="#231356"/>
    <path id="Path_13175" data-name="Path 13175" d="M-10.107,0h-4.714A14.645,14.645,0,0,0-29.27,12.354h2.527A12.143,12.143,0,0,1-14.821,2.488h4.714A12.154,12.154,0,0,1,1.815,12.354H4.342A14.65,14.65,0,0,0-10.107,0" transform="translate(909.688 2144.288)" fill="#231356"/>
    <path id="Path_13180" data-name="Path 13180" d="M383.478-232.94H358.1v-2.488h25.376Z" transform="translate(525.896 2399.745)" fill="#231356"/>
    <path id="Path_13181" data-name="Path 13181" d="M-8.612-3.108-9.9-.98-14.563-3.8l-1.761-1.067L-16.442-3.8l-.668,5.86-7.83-5.552.216-.308,1.218-1.722L-21.077-3.8l1.971,1.395L-18.95-3.8-18.36-9l8.6,5.2Z" transform="translate(915.328 2160.446)" fill="#34cf2c"/>
  </g>
</svg>
