<svg xmlns="http://www.w3.org/2000/svg" width="20.168" height="21.227" viewBox="0 0 20.168 21.227">
  <g id="Group_5063" data-name="Group 5063" transform="translate(-114 -492.773)">
    <path id="Path_12962" data-name="Path 12962" d="M131.46,51.5V46.67H130.4V51.5h0a2.653,2.653,0,0,0,0,5.2V67.9h1.061V56.7a2.653,2.653,0,0,0,0-5.2Zm-.531,4.192a1.592,1.592,0,1,1,1.126-.466A1.592,1.592,0,0,1,130.93,55.691Z" transform="translate(-14.273 446.104)" fill="#231356"/>
    <path id="Path_12963" data-name="Path 12963" d="M460.254,54.1a2.653,2.653,0,0,0-2.123-2.6V46.672H457.07V51.5h0a2.653,2.653,0,0,0,0,5.2V67.9h1.061V56.7a2.653,2.653,0,0,0,2.123-2.6ZM457.6,55.693h0a1.592,1.592,0,1,1,1.126-.466,1.592,1.592,0,0,1-1.126.466Z" transform="translate(-326.086 446.102)" fill="#231356"/>
    <path id="Path_12964" data-name="Path 12964" d="M294.8,57.867V46.67h-1.061v11.2a2.653,2.653,0,0,0,0,5.2V67.9H294.8V63.068a2.653,2.653,0,0,0,0-5.2Zm-.531,4.192a1.592,1.592,0,1,1,1.126-.466A1.593,1.593,0,0,1,294.266,62.059Z" transform="translate(-170.18 446.104)" fill="#231356"/>
  </g>
</svg>
