<svg xmlns="http://www.w3.org/2000/svg" width="104.972" height="116.194" viewBox="0 0 104.972 116.194">
  <g id="Group_2636" data-name="Group 2636" transform="translate(0)">
    <path id="Path_12921" data-name="Path 12921" d="M1423.157,245.51,1406.931,232.6l4.033-5.064,7.646,6.084,2.241-13.229,20.064,13.694-3.65,5.348-11.719-8Z" transform="translate(-1384.516 -145.255)" fill="#50cc1a"/>
    <g id="Group_2635" data-name="Group 2635" transform="translate(0 0)">
      <path id="Path_12922" data-name="Path 12922" d="M1401.163,184.9h74.358v39.884h6.859V178.042h-88.075V287.189h-.007v6.859h.007v.188h6.858v-.188h29.4v-6.859h-29.4Z" transform="translate(-1394.298 -178.042)" fill="#fff"/>
      <rect id="Rectangle_1126" data-name="Rectangle 1126" width="40.528" height="6.859" transform="translate(23.207 21.916)" fill="#fff"/>
      <rect id="Rectangle_1127" data-name="Rectangle 1127" width="40.528" height="6.859" transform="translate(23.207 39.748)" fill="#fff"/>
      <rect id="Rectangle_1128" data-name="Rectangle 1128" width="40.528" height="6.859" transform="translate(23.207 57.581)" fill="#fff"/>
      <path id="Path_12923" data-name="Path 12923" d="M1465.741,207.188l-37.384,34.084-3.765,3.431-.146.568-5.227,20.276,20.977-3.387,39.776-36.683Zm-28.683,48.521-8.57,1.386,2.234-8.7,34.158-31.135,5.809,7.459Z" transform="translate(-1375.001 -155.475)" fill="#fff"/>
    </g>
  </g>
</svg>
