<svg xmlns="http://www.w3.org/2000/svg" width="169.85" height="177.108" viewBox="0 0 169.85 177.108">
  <g id="Group_3368" data-name="Group 3368" transform="translate(16562.277 9139.973)">
    <g id="Group_3256" data-name="Group 3256" transform="translate(-16438.275 -9101.727)">
      <path id="Path_13363" data-name="Path 13363" d="M29.091,0-16.757,12.285,16.806,45.848Z" transform="translate(16.757)" fill="#fff"/>
    </g>
    <g id="Group_3257" data-name="Group 3257" transform="translate(-16538.439 -9139.973)">
      <path id="Path_13364" data-name="Path 13364" d="M68.378,0l7.355,7.354L-32.032,115.116l-7.355-7.352Z" transform="translate(39.387)" fill="#fff"/>
    </g>
    <g id="Group_3258" data-name="Group 3258" transform="translate(-16562.277 -9046.865)">
      <path id="Path_13365" data-name="Path 13365" d="M0,29.091,45.848,16.806,12.285-16.757Z" transform="translate(0 16.757)" fill="#fff"/>
    </g>
    <g id="Group_3259" data-name="Group 3259" transform="translate(-16485.768 -9090.221)">
      <path id="Path_13366" data-name="Path 13366" d="M51.9,4.665-22.544,79.11-29.9,71.758,44.549-2.687Z" transform="translate(29.896 2.687)" fill="#fff"/>
    </g>
    <g id="Group_3260" data-name="Group 3260" transform="translate(-16515.447 -9008.422)">
      <path id="Path_13367" data-name="Path 13367" d="M18.831,4.665-3.5,26.991l-7.352-7.352L11.479-2.687Z" transform="translate(10.847 2.687)" fill="#34cf2c"/>
    </g>
    <g id="Group_3261" data-name="Group 3261" transform="translate(-16531.328 -8978.75)">
      <path id="Path_13368" data-name="Path 13368" d="M5.413,0l7.352,7.354L4.234,15.885-3.118,8.534Z" transform="translate(3.118)" fill="#fff"/>
    </g>
  </g>
</svg>
