<svg version="1.2" xmlns="http://www.w3.org/2000/svg" viewBox="0 0 40 40" width="40" height="40"><style>.a{fill:#fff}.b{fill:#4b3e75}</style><path class="a" d="m20 34.1c-7.8 0-14.1-6.3-14.1-14.1 0-7.8 6.3-14.1 14.1-14.1 7.8 0 14.1 6.3 14.1 14.1 0 7.8-6.3 14.1-14.1 14.1z"/><path fill-rule="evenodd" class="b" d="m35.3 32.6c-1.2 1.6-2.7 2.9-4.3 4.1q-2.5 1.6-5.3 2.5-2.8 0.8-5.8 0.8c-11 0-19.9-9-19.9-20 0-11 8.9-20 19.9-20 0.9 0 1.7 0.1 2.5 0.2 9.8 1.2 17.5 9.6 17.5 19.8q0 1-0.1 1.9-0.1 1-0.3 1.9-0.2 0.9-0.5 1.9-0.2 0.9-0.6 1.8c-0.8 1.8-1.8 3.6-3.1 5.1zm-16.2-5.6q0.1 0 0.3 0.1 0.1 0 0.3-0.1 0.1 0 0.2-0.1 0.1-0.1 0.2-0.3 0-0.1 0-0.3 0-0.1 0-0.3-0.1-0.1-0.2-0.2l-4.9-5h13.2q0.3 0 0.5-0.2 0.2-0.2 0.2-0.6 0-0.3-0.2-0.5-0.2-0.3-0.5-0.2h-13.2l4.9-5q0.1-0.1 0.2-0.2 0-0.2 0-0.3 0-0.2 0-0.3-0.1-0.2-0.2-0.3-0.1-0.1-0.2-0.2-0.2 0-0.3 0-0.2 0-0.3 0-0.2 0.1-0.3 0.2l-6.2 6.3c-0.1 0-0.2 0.1-0.2 0.2 0 0.1 0 0.2 0 0.3q0 0 0 0.1 0 0 0 0 0 0.1 0 0.1 0 0.1 0 0.1 0 0 0 0.1 0.1 0 0.1 0 0 0.1 0 0.1 0 0 0.1 0l6.2 6.3q0.1 0.1 0.3 0.2z"/></svg>