<svg version="1.2" xmlns="http://www.w3.org/2000/svg" viewBox="0 0 40 39" width="40" height="39"><path fill-rule="evenodd" class="a" fill="#4b3e75" d="m35.3 31.2q-1.9 2.2-4.3 3.8-2.5 1.6-5.3 2.5-2.8 0.8-5.8 0.7c-11 0-19.9-8.5-19.9-19.1 0-10.5 8.9-19.1 19.9-19.1 0.9 0 1.7 0.1 2.5 0.2 9.8 1.1 17.5 9.2 17.5 18.9q0 0.9-0.1 1.8-0.1 1-0.3 1.9-0.2 0.9-0.5 1.7-0.2 0.9-0.6 1.8-1.2 2.7-3.1 4.9zm-16.2-5.4q0.1 0.1 0.3 0.1 0.1 0 0.3-0.1 0.1 0 0.2-0.1 0.1-0.1 0.2-0.2 0-0.2 0-0.3 0-0.2 0-0.3-0.1-0.2-0.2-0.3l-4.9-4.7h13.2q0.3 0 0.5-0.2 0.2-0.2 0.2-0.5 0-0.4-0.2-0.6-0.2-0.2-0.5-0.2h-13.2l4.9-4.7q0.1-0.1 0.2-0.3 0-0.1 0-0.3 0-0.1 0-0.2-0.1-0.2-0.2-0.3-0.1-0.1-0.2-0.1-0.2-0.1-0.3-0.1-0.2 0-0.3 0.1-0.2 0-0.3 0.1l-6.2 6c-0.1 0-0.2 0.2-0.2 0.2 0 0.1 0 0.2 0 0.3q0 0.1 0 0.1 0 0 0 0.1 0 0 0 0 0 0.1 0 0.1 0 0 0 0.1 0.1 0 0.1 0 0 0.1 0 0.1 0 0 0.1 0l6.2 6q0.1 0.1 0.3 0.2z"/><path class="b" fill="none" stroke="#fff" d="m29 19h-15"/><path class="b" fill="none" stroke="#fff" d="m20 26l-1-1-6-6 7-6"/></svg>