<svg id="Group_5022" data-name="Group 5022" xmlns="http://www.w3.org/2000/svg" width="20.768" height="27.44" viewBox="0 0 20.768 27.44">
  <path id="Path_12861" data-name="Path 12861" d="M292.769,167a3.249,3.249,0,1,1-3.246,3.249A3.248,3.248,0,0,1,292.769,167Zm5,3.249a5,5,0,1,0-5,4.993A4.994,4.994,0,0,0,297.765,170.249Z" transform="translate(-282.385 -160.747)" fill="#fff" fill-rule="evenodd"/>
  <path id="Path_12862" data-name="Path 12862" d="M233.44,135.25c6.564-10.441,6.85-11.032,6.958-11.255a10.387,10.387,0,1,0-18.73-.046c.1.212.408.853,7.118,11.311a2.757,2.757,0,0,0,4.654-.011Zm4.411-10.369c-1.934,3.163-3.916,6.3-5.889,9.44a.986.986,0,0,1-.848.467,1.009,1.009,0,0,1-.86-.47c-2.02-3.148-4.05-6.3-6.023-9.476a19.088,19.088,0,0,1-.988-1.644,8.692,8.692,0,0,1,1.691-9.83,8.642,8.642,0,0,1,12.22,0,8.681,8.681,0,0,1,1.673,9.867c-.255.528-.668,1.142-.975,1.644Z" transform="translate(-220.66 -109.093)" fill="#fff" fill-rule="evenodd"/>
</svg>
