<svg xmlns="http://www.w3.org/2000/svg" width="19.465" height="25.719" viewBox="0 0 19.465 25.719">
  <g id="Group_2508" data-name="Group 2508" transform="translate(-436.554 -1269.75)">
    <path id="Path_12861" data-name="Path 12861" d="M292.455,166.891a3.045,3.045,0,1,1-3.042,3.045A3.044,3.044,0,0,1,292.455,166.891Zm4.682,3.045a4.682,4.682,0,1,0-4.682,4.68A4.681,4.681,0,0,0,297.138,169.936Z" transform="translate(153.831 1108.72)" fill="#45d33d" fill-rule="evenodd"/>
    <path id="Path_12862" data-name="Path 12862" d="M232.638,133.609c6.153-9.786,6.42-10.34,6.521-10.549a9.735,9.735,0,1,0-17.555-.043c.095.2.382.8,6.672,10.6a2.584,2.584,0,0,0,4.362-.01Zm4.135-9.719c-1.813,2.964-3.67,5.907-5.519,8.848a.925.925,0,0,1-.795.438.946.946,0,0,1-.806-.441c-1.893-2.951-3.8-5.9-5.645-8.882a17.89,17.89,0,0,1-.926-1.54,8.147,8.147,0,0,1,1.585-9.214,8.1,8.1,0,0,1,11.453,0,8.137,8.137,0,0,1,1.568,9.248c-.239.5-.626,1.071-.914,1.541Z" transform="translate(215.894 1160.657)" fill="#45d33d" fill-rule="evenodd"/>
  </g>
</svg>
