<svg xmlns="http://www.w3.org/2000/svg" width="152.327" height="122.577" viewBox="0 0 152.327 122.577">
  <g id="Group_5142" data-name="Group 5142" transform="translate(-676.772 -559.368)">
    <rect id="Rectangle_1822" data-name="Rectangle 1822" width="35.867" height="7.616" transform="translate(707.947 634.886)" fill="#fff"/>
    <rect id="Rectangle_1823" data-name="Rectangle 1823" width="35.867" height="7.616" transform="translate(707.947 612.661)" fill="#fff"/>
    <g id="Group_5141" data-name="Group 5141" transform="translate(676.772 559.368)">
      <g id="Group_5143" data-name="Group 5143">
        <path id="Path_17635" data-name="Path 17635" d="M767.394,652.828a21.284,21.284,0,0,1-4.61,13.277,10.856,10.856,0,0,1-.769.907,17.26,17.26,0,0,1-1.674,1.714,11.049,11.049,0,0,1-.906.769,8.559,8.559,0,0,1-.946.729c-.3.216-.591.433-.906.63a20.786,20.786,0,0,1-4.393,2.187,11.478,11.478,0,0,1-1.162.374,16.344,16.344,0,0,1-2.4.571,17,17,0,0,1-2.482.3c-.413.02-.827.04-1.261.04H705.889c-.413,0-.847-.021-1.26-.04a16.975,16.975,0,0,1-2.482-.3,16.342,16.342,0,0,1-2.4-.571c-.395-.118-.788-.237-1.163-.374a21.8,21.8,0,0,1-4.393-2.187c-.315-.2-.61-.414-.906-.63a8.653,8.653,0,0,1-.945-.729c-.315-.256-.612-.512-.907-.769a17.267,17.267,0,0,1-1.674-1.714,10.855,10.855,0,0,1-.768-.907,21.29,21.29,0,0,1-4.609-13.277V607.713a40.165,40.165,0,0,1,4.038-17.631v-.02c.414-.887.887-1.754,1.379-2.621.493-.847,1.005-1.674,1.557-2.482a40.886,40.886,0,0,1,33.767-17.967h1.536a40.886,40.886,0,0,1,33.766,17.967c.553.808,1.064,1.635,1.557,2.482.493.867.966,1.733,1.379,2.621v.02a40.15,40.15,0,0,1,4.039,17.631Zm7.6-45.114a45.552,45.552,0,0,0-.256-4.945,8.829,8.829,0,0,0-.119-1.025c-.059-.512-.137-1.025-.216-1.537-.138-.945-.315-1.87-.512-2.776-.315-1.478-.71-2.936-1.163-4.354a46.47,46.47,0,0,0-1.753-4.649c-.3-.69-.61-1.359-.945-2.03-.355-.708-.71-1.379-1.084-2.069-.512-.925-1.044-1.831-1.635-2.718-.3-.473-.61-.927-.927-1.379-.452-.651-.906-1.281-1.4-1.911-.472-.631-.984-1.242-1.5-1.852-.512-.591-1.025-1.182-1.576-1.753-.512-.553-1.025-1.084-1.576-1.6a.138.138,0,0,0-.078-.1c-.354.3-.729.591-1.084.886l-4.905-5.811.02-.02c-.315-.216-.63-.433-.965-.65-.493-.336-1.005-.671-1.537-.966a.226.226,0,0,0-.138-.1c-.63-.393-1.28-.768-1.931-1.123q-.886-.5-1.831-.946c-.355-.176-.71-.354-1.064-.492-.453-.238-.946-.434-1.418-.651-.71-.3-1.439-.571-2.148-.847-.808-.3-1.635-.571-2.463-.827-.67-.2-1.34-.393-2.01-.571a1,1,0,0,1-.177-.039c-.729-.2-1.478-.354-2.226-.512-.612-.119-1.2-.237-1.813-.335-.118-.02-.256-.039-.374-.059-.315-.06-.631-.1-.946-.139l-1.438-.178c-.591-.059-1.182-.118-1.793-.137a9.617,9.617,0,0,0-1.3-.078q-1.035-.061-2.069-.06h-1.536q-1.035,0-2.069.06a9.637,9.637,0,0,0-1.3.078c-.61.02-1.2.078-1.792.137l-1.439.178c-.315.039-.63.078-.945.139-.118.02-.256.039-.374.059-.612.1-1.2.216-1.813.335-.749.158-1.5.315-2.226.512-.059.02-.119.02-.178.039-.669.178-1.34.374-2.009.571-.827.256-1.635.532-2.463.827-.71.276-1.439.552-2.148.847-.473.2-.945.413-1.418.651-.355.137-.71.315-1.064.492q-.916.443-1.833.946c-.65.354-1.3.729-1.931,1.123a.3.3,0,0,0-.137.1c-.532.3-1.044.63-1.537.966-.335.217-.65.434-.966.65a48.024,48.024,0,0,0-5.968,4.945.318.318,0,0,0-.08.1c-.552.512-1.064,1.043-1.575,1.6-.552.571-1.064,1.162-1.576,1.753-.512.61-1.025,1.221-1.5,1.852-.492.63-.945,1.26-1.4,1.911-.315.452-.63.906-.925,1.379-.571.886-1.123,1.792-1.635,2.718-.374.69-.729,1.361-1.084,2.069-.335.67-.65,1.34-.946,2.03-.65,1.516-1.24,3.073-1.753,4.649-.454,1.418-.847,2.876-1.162,4.354-.2.925-.375,1.851-.512,2.776-.078.512-.158,1.025-.217,1.537a9.1,9.1,0,0,0-.118,1.025,45.552,45.552,0,0,0-.256,4.945v45.114a28.95,28.95,0,0,0,5.733,17.316q.5.68,1.064,1.359a29.336,29.336,0,0,0,3.486,3.507c.414.354.847.71,1.3,1.044.434.335.886.65,1.359.965.434.3.867.573,1.32.847.335.2.669.395,1.025.571.374.2.748.395,1.123.572q.561.294,1.123.532c.454.2.925.393,1.379.552.61.235,1.221.433,1.852.611a12.683,12.683,0,0,0,1.418.393,13.473,13.473,0,0,0,1.557.335,2.14,2.14,0,0,0,.354.08c.394.059.808.137,1.2.178.69.1,1.379.157,2.089.2.571.039,1.142.059,1.733.059h39.992c.592,0,1.163-.02,1.734-.059.708-.039,1.4-.1,2.087-.2.395-.04.808-.119,1.2-.178a2.169,2.169,0,0,0,.354-.08,13.471,13.471,0,0,0,1.557-.335,12.832,12.832,0,0,0,1.418-.393c.63-.178,1.242-.375,1.852-.611.452-.158.925-.354,1.379-.552q.561-.237,1.123-.532a10.045,10.045,0,0,0,1.123-.572c.354-.177.689-.374,1.025-.571.454-.275.886-.55,1.32-.847.452-.3.906-.63,1.358-.965s.887-.69,1.3-1.044A29.255,29.255,0,0,0,768.2,671.5q.561-.68,1.064-1.359A28.95,28.95,0,0,0,775,652.828V623.69l-.119.08-3.979-6.5,4.1-2.5Z" transform="translate(-676.772 -559.368)" fill="#fff"/>
        <path id="Path_17636" data-name="Path 17636" d="M793.6,603.47l-32.88,20.074-.119.08-3.979-6.5,4.1-2.5,22.5-13.731-5.4-9.161.3-1.457c.1-.453,2.325-11.249-4.038-17.77-5.813-5.93-17.987-7.329-28.093.374-.354.3-.729.591-1.084.886L740,567.95l.02-.02c12.175-10.263,29.885-10.6,39.5-.748,7.643,7.84,6.934,18.971,6.324,23.147Z" transform="translate(-662.498 -559.223)" fill="#fff"/>
      </g>
    </g>
    <path id="Path_17637" data-name="Path 17637" d="M803.878,663.1l-16.232-3.688-3.875-5.813,6.34-4.225,2.189,3.283,5.994,1.363,1.236-4.936L771.57,603.462l6.5-3.979L807.7,647.825Z" transform="translate(21.402 9.057)" fill="#fff"/>
    <path id="Path_17638" data-name="Path 17638" d="M762.1,638.7l-.679-19.017,5.938-.211.32,8.96,10.56-6.33,2.423,22.158-5.906.646-1.415-12.943Z" transform="translate(19.111 13.57)" fill="#50cc1a"/>
  </g>
</svg>
