<svg xmlns="http://www.w3.org/2000/svg" width="91.045" height="126.242" viewBox="0 0 91.045 126.242">
  <g id="Group_2639" data-name="Group 2639" transform="translate(0.001)">
    <g id="Group_2629" data-name="Group 2629" transform="translate(-0.001 0)">
      <path id="Path_12905" data-name="Path 12905" d="M-122.109,234.427v-46.9h-6.544v.216h-1.5l-11.132,12.146,4.824,4.42,7.81-8.521v38.638Z" transform="translate(171.048 -166.202)" fill="#fff"/>
      <path id="Path_12906" data-name="Path 12906" d="M-89.868,246.534a44.188,44.188,0,0,0,13.4-30.3h-6.559a37.788,37.788,0,0,1-37.723,36.328A37.81,37.81,0,0,1-158.518,214.8a37.809,37.809,0,0,1,37.763-37.765,37.284,37.284,0,0,1,16.609,3.865v-7.174a43.919,43.919,0,0,0-16.609-3.236A44.352,44.352,0,0,0-165.062,214.8a44.259,44.259,0,0,0,17.736,35.433h0l-14.363,35.661,16.759-2.529,10.5,13.368,14.077-37.623h0a42.648,42.648,0,0,0,4.871-.323h.006l14.2,37.947,10.5-13.368,16.757,2.529Zm-46.61,37-5.66-7.206-9.2,1.389,9.624-23.893a43.237,43.237,0,0,0,14.541,4.813h.011Zm42.913-7.206-5.661,7.206-9.738-26.026h0a44.391,44.391,0,0,0,13.815-6.558l10.782,26.767Z" transform="translate(165.062 -170.491)" fill="#fff"/>
    </g>
    <path id="Path_12907" data-name="Path 12907" d="M-89.959,208.018h-6.331a35.9,35.9,0,0,0-10.353-21.8,35.1,35.1,0,0,0-4.982-4.15v-7.39a3.459,3.459,0,0,1,.343.179,41.009,41.009,0,0,1,5.29,3.549,41.918,41.918,0,0,1,3.516,3.092l.277.278a41.6,41.6,0,0,1,4.037,4.672,41.73,41.73,0,0,1,6.593,13.136,41.476,41.476,0,0,1,1.383,6.235c.1.732.179,1.465.228,2.2" transform="translate(178.514 -169.436)" fill="#50cc1a"/>
  </g>
</svg>
