<svg xmlns="http://www.w3.org/2000/svg" width="115.795" height="115.793" viewBox="0 0 115.795 115.793">
  <g id="Group_3334" data-name="Group 3334" transform="translate(-209.717 -3037.832)">
    <g id="Group_3083" data-name="Group 3083" transform="translate(210.148 3102.808)">
      <path id="Path_13168" data-name="Path 13168" d="M0,0A57.639,57.639,0,0,0,16.4,33.678l4.606-4.571A51.2,51.2,0,0,1,6.592.017Z" fill="#34cf2c"/>
    </g>
    <g id="Group_3084" data-name="Group 3084" transform="translate(209.717 3037.832)">
      <path id="Path_13169" data-name="Path 13169" d="M24.079,0A57.964,57.964,0,0,0-33.81,57.905v.565l6.523.017c-.017-.188-.017-.394-.017-.582a51.437,51.437,0,1,1,19.81,40.51l-4.64,4.606A57.883,57.883,0,1,0,24.079,0" transform="translate(33.81)" fill="#fff"/>
    </g>
    <g id="Group_3085" data-name="Group 3085" transform="translate(257.447 3061.987)">
      <path id="Path_13170" data-name="Path 13170" d="M.08,24.457c-.3-19.733-.214-35.332,0-42.035a17.648,17.648,0,0,1,2.185-8.333A16.9,16.9,0,0,1,11.6-33.577a16.93,16.93,0,0,1,8.948-.3c3.9.836,8.364,4.02,9.64,4.977l-3.9,5.207a22.383,22.383,0,0,0-7.1-3.822,10.352,10.352,0,0,0-5.6.137A10.463,10.463,0,0,0,7.927-22.7a11.271,11.271,0,0,0-1.342,5.335c-.212,6.626-.294,22.1,0,41.729Z" transform="translate(0.113 34.342)" fill="#fff"/>
    </g>
    <path id="Path_13172" data-name="Path 13172" d="M57.582-246.885H23.2v-6.508H57.582Z" transform="translate(226.24 3370.433)" fill="#fff"/>
    <path id="Path_13173" data-name="Path 13173" d="M50.94-263.181H23.956v-6.508H50.94Z" transform="translate(226.781 3358.828)" fill="#fff"/>
  </g>
</svg>
