<svg xmlns="http://www.w3.org/2000/svg" width="14.528" height="19.544" viewBox="0 0 14.528 19.544">
  <path id="Path_12978" data-name="Path 12978" d="M202.181,80.77V61.977a.376.376,0,0,0-.376-.376H188.029a.376.376,0,0,0-.376.376v16.48a.368.368,0,0,0,.007.072h0a.373.373,0,0,0,.032.091l.012.022a.382.382,0,0,0,.059.08l2.313,2.313a.37.37,0,0,0,.058.047c.01.007.021.011.031.017s.022.013.034.018a.365.365,0,0,0,.039.012.328.328,0,0,0,.032.009.383.383,0,0,0,.065.006h11.472a.376.376,0,0,0,.376-.376Zm-13.245-1.937h1.029v1.029Zm12.493,1.561H190.718V78.457a.376.376,0,0,0-.376-.376H188.4V62.353h13.025Z" transform="translate(-187.653 -61.602)" fill="#45d33d"/>
</svg>
