<svg xmlns="http://www.w3.org/2000/svg" width="111.869" height="122.611" viewBox="0 0 111.869 122.611">
  <g id="Group_2642" data-name="Group 2642" transform="translate(0.001)">
    <g id="Group_2637" data-name="Group 2637" transform="translate(-0.001 0)">
      <path id="Path_12924" data-name="Path 12924" d="M1392.279,299.919l-16.125-16.125-5.377,5.375,13.957,13.957,1.021,50.222c.112,5.231-.842,8.889-2.818,10.881a6.652,6.652,0,0,1-6.412,1.456c-4.324-1.295-6.362-6.394-6.477-10.863a50.1,50.1,0,0,1,.52-7.155c.193-1.653.4-3.369.518-5.117a45.641,45.641,0,0,0-1.716-15.494,14.3,14.3,0,0,0-7.464-9.31,16.575,16.575,0,0,0-10.3-1.037V297.863a30.277,30.277,0,0,0-30.241-30.244h-9.618a30.279,30.279,0,0,0-30.245,30.244V390.23h70.1V324.544a10.055,10.055,0,0,1,7.028.065,6.779,6.779,0,0,1,3.432,4.566,38.209,38.209,0,0,1,1.425,12.9c-.1,1.539-.275,3.06-.486,4.68a57.168,57.168,0,0,0-.566,8.257c.179,7.2,3.92,15.559,11.884,17.954a14.211,14.211,0,0,0,14.021-3.383c3.529-3.546,5.164-8.921,5.019-16.4ZM1344,382.62h-54.886V297.863a22.666,22.666,0,0,1,22.635-22.633h9.618A22.666,22.666,0,0,1,1344,297.863Z" transform="translate(-1281.503 -267.619)" fill="#fff"/>
      <path id="Path_12925" data-name="Path 12925" d="M1291.955,309.071l12.077-19.573,6.11,3.773-5.689,9.222,14.864.724-12.434,23.9-6.37-3.314,7.261-13.961Z" transform="translate(-1271.386 -246.441)" fill="#50cc1a"/>
    </g>
  </g>
</svg>
