<svg version="1.2" xmlns="http://www.w3.org/2000/svg" viewBox="0 0 23 26" width="23" height="26">
	<title>Group 3451-svg</title>
	<style>
		tspan { white-space:pre } 
		.t0 { font-size: 15px;fill: #ffffff;font-weight: 500;font-family: "Avenir" } 
		.s1 { fill: #ffffff } 
	</style>
	<g id="Group_3451">
		<text id="Share this" style="transform: matrix(1,0,0,1,-78,18.418)" >
			<tspan x="0" y="0" class="t0">Share this
</tspan>
		</text>
		<g id="Group_3450">
			<path id="Path_297" class="s1" d="m15.1 16.3c0.3 0.9 0 1.9-0.8 2.4-0.7 0.6-1.7 0.6-2.5 0.1-0.8-0.5-1.1-1.4-0.9-2.3l-4-2.1c-0.6 0.8-1.6 1.1-2.4 0.8-0.9-0.3-1.5-1.2-1.5-2.1 0-0.9 0.6-1.8 1.5-2.1 0.8-0.3 1.8 0 2.4 0.8l4-2.1c-0.3-1 0.3-2.2 1.3-2.6 1.1-0.4 2.3 0.1 2.8 1.1 0.5 1 0.2 2.2-0.8 2.8-0.9 0.6-2.2 0.4-2.9-0.5l-4 2q0 0.2 0 0.3 0.1 0.2 0.1 0.3 0 0.1-0.1 0.3 0 0.1 0 0.3l4 2q0.2-0.2 0.3-0.4 0.2-0.1 0.5-0.2 0.2-0.1 0.4-0.2 0.3-0.1 0.5-0.1c0.9 0 1.8 0.6 2.1 1.5z"/>
		</g>
	</g>
</svg>