<svg version="1.2" xmlns="http://www.w3.org/2000/svg" viewBox="0 0 44 44" width="44" height="44">
	<title>Group 2796-svg</title>
	<style>
		tspan { white-space:pre } 
		.s0 { fill: red } 
	</style>
	<g id="Group_2796">
		<g id="Group_630">
			<path id="Path_297" class="s0" d="m23.6 32.6c0.3 0.9 0 1.9-0.8 2.5-0.7 0.5-1.7 0.6-2.5 0.1-0.8-0.6-1.1-1.5-0.9-2.4l-4-2c-0.6 0.7-1.6 1-2.4 0.7-0.9-0.3-1.5-1.1-1.5-2.1 0-0.9 0.6-1.7 1.5-2 0.8-0.3 1.8-0.1 2.4 0.7l4-2c-0.3-1.1 0.3-2.3 1.3-2.7 1.1-0.4 2.3 0.1 2.8 1.1 0.5 1 0.2 2.2-0.8 2.9-0.9 0.6-2.2 0.3-2.9-0.6l-4 2.1q0 0.1 0 0.2 0.1 0.2 0.1 0.3 0 0.2-0.1 0.3 0 0.1 0 0.3l4 2q0.2-0.2 0.3-0.4 0.2-0.1 0.5-0.2 0.2-0.1 0.4-0.2 0.3 0 0.5 0c0.9 0 1.8 0.6 2.1 1.4z"/>
		</g>
	</g>
</svg>