<svg version="1.2" xmlns="http://www.w3.org/2000/svg" viewBox="0 0 58 58" width="58" height="58"><style>.a{fill:#231356}.b{fill:#45d33d}</style><path class="a" d="m29 46.4c-9.6 0-17.4-7.8-17.4-17.4 0-9.6 7.8-17.4 17.4-17.4 9.6 0 17.4 7.8 17.4 17.4 0 9.6-7.8 17.4-17.4 17.4z"/><path fill-rule="evenodd" class="b" d="m2.1 39.6c-1.7-4.1-2.3-8.6-2-13 0.3-4.4 1.6-8.7 3.9-12.5 2.2-3.8 5.2-7 8.9-9.4 3.6-2.4 7.8-4 12.1-4.5 1.2-0.1 2.4-0.2 3.6-0.2 3.7 0 7.4 0.7 10.9 2.2 3.4 1.4 6.6 3.5 9.2 6.2 2.7 2.7 4.8 5.8 6.2 9.3 1.5 3.5 2.2 7.3 2.3 11.1-0.1 6.7-2.5 13.2-6.7 18.4-4.2 5.1-10.1 8.6-16.6 9.9-6.4 1.3-13.2 0.2-19-3-5.8-3.2-10.3-8.3-12.8-14.5zm28.1-1l8.9-9q0.1-0.1 0.1-0.1 0 0 0.1-0.1 0 0 0-0.1 0 0 0.1-0.1 0 0 0-0.1 0 0 0-0.1 0 0 0-0.1 0 0 0-0.1c0-0.1 0-0.3 0-0.4-0.1-0.1-0.1-0.3-0.3-0.4l-8.9-9q-0.2-0.1-0.4-0.2-0.2-0.1-0.4-0.1-0.2 0-0.4 0.1-0.3 0.1-0.4 0.2-0.2 0.2-0.3 0.4 0 0.2 0 0.4 0 0.2 0 0.4 0.1 0.3 0.3 0.4l7 7.1h-18.8c-0.3 0-0.6 0.1-0.8 0.4-0.2 0.2-0.4 0.5-0.4 0.8 0 0.3 0.2 0.6 0.4 0.8 0.2 0.2 0.5 0.3 0.8 0.3h18.8l-7 7.1q-0.2 0.2-0.3 0.4 0 0.2 0 0.4 0 0.2 0 0.5 0.1 0.2 0.3 0.3 0.2 0.2 0.4 0.2 0.2 0.1 0.4 0.1 0.2 0 0.4-0.1 0.2-0.1 0.4-0.3z"/></svg>