<svg version="1.2" xmlns="http://www.w3.org/2000/svg" viewBox="0 0 58 58" width="58" height="58"><style>.a{fill:#231356}.b{fill:#45d33d}</style><path class="a" d="m29 46.4c-9.6 0-17.4-7.8-17.4-17.4 0-9.6 7.8-17.4 17.4-17.4 9.6 0 17.4 7.8 17.4 17.4 0 9.6-7.8 17.4-17.4 17.4z"/><path fill-rule="evenodd" class="b" d="m42.2 54.1c-5.8 3.2-12.5 4.3-19 3-6.5-1.3-12.3-4.8-16.6-9.9-4.2-5.2-6.5-11.7-6.6-18.4 0-3.8 0.8-7.6 2.2-11.1 1.5-3.5 3.6-6.6 6.2-9.3 2.7-2.7 5.8-4.8 9.3-6.2 3.4-1.5 7.1-2.2 10.9-2.2 1.2 0 2.4 0.1 3.5 0.2 4.4 0.5 8.5 2.1 12.2 4.5 3.6 2.4 6.7 5.6 8.9 9.4 2.2 3.8 3.6 8.1 3.9 12.5 0.3 4.4-0.4 8.9-2 13-2.5 6.2-7.1 11.3-12.9 14.5zm-14.9-15.2q0.2 0.1 0.5 0.1 0.2 0 0.4-0.1 0.2 0 0.4-0.2 0.1-0.1 0.2-0.3 0.1-0.3 0.1-0.5 0-0.2-0.1-0.4-0.1-0.2-0.2-0.4l-7.1-7.1h18.9c0.3 0 0.6-0.1 0.8-0.3 0.2-0.2 0.3-0.5 0.3-0.8 0-0.3-0.1-0.6-0.3-0.8-0.2-0.3-0.5-0.4-0.8-0.4h-18.9l7.1-7.1q0.1-0.1 0.2-0.4 0.1-0.2 0.1-0.4 0-0.2-0.1-0.4-0.1-0.2-0.2-0.4-0.2-0.1-0.4-0.2-0.2-0.1-0.4-0.1-0.2 0-0.5 0.1-0.2 0.1-0.3 0.2l-9 9c-0.1 0.1-0.2 0.3-0.2 0.4 0 0.1-0.1 0.3-0.1 0.4q0 0.1 0 0.1 0 0.1 0 0.1 0 0.1 0.1 0.1 0 0.1 0 0.1 0 0.1 0 0.1 0.1 0.1 0.1 0.1 0 0.1 0.1 0.1 0 0 0 0.1l9 9q0.1 0.2 0.3 0.3z"/></svg>