<svg xmlns="http://www.w3.org/2000/svg" width="112.586" height="115.954" viewBox="0 0 112.586 115.954">
  <g id="Group_5139" data-name="Group 5139" transform="translate(-650.198 -291.656)">
    <path id="Path_17633" data-name="Path 17633" d="M677.834,333.155l4.967,4.967L664.8,356l-4.967-4.948Z" transform="translate(3.254 14.017)" fill="#38d430"/>
    <path id="Path_17634" data-name="Path 17634" d="M759.137,311.638l-2.242-5.429-16.021,19.64-9.078-1.7.3-10.71,21.25-10.366-4.566-3.442c-14.587-10.995-35.1-10.575-48.765,1a38.782,38.782,0,0,0-12.164,39.817l-.016.015-.181.182-1.849,1.849,4.967,4.967,1.866-1.849,3.173-3.154.012-.012.039-.015a31.567,31.567,0,0,1,43.568-40.373L725.2,309l-.582,20.937,19.052,3.572,10.907-13.37c3.413,13.638-.538,27.567-10.508,35.346-10.075,7.866-22.585,6.18-26.177,5.474l-1.871-.364-35.793,37.072-20.011-19.657,3.339-3.316-4.967-4.948L650.2,378.08l4.286,4.118L680.37,407.61l38.092-39.45c5.869.836,18.945,1.421,29.924-7.153C762.255,350.183,766.676,329.88,759.137,311.638Z" transform="translate(0)" fill="#fff"/>
  </g>
</svg>
