<svg xmlns="http://www.w3.org/2000/svg" width="28.207" height="22.913" viewBox="0 0 28.207 22.913">
  <path id="Path_7" data-name="Path 7" d="M1043.046,511.012a11.562,11.562,0,0,1-3.323.914,5.829,5.829,0,0,0,2.547-3.2,11.539,11.539,0,0,1-3.685,1.4,5.785,5.785,0,0,0-10,3.96,6.012,6.012,0,0,0,.147,1.318,16.427,16.427,0,0,1-11.93-6.045,5.786,5.786,0,0,0,1.79,7.721,5.7,5.7,0,0,1-2.615-.722v.07a5.8,5.8,0,0,0,4.638,5.681,5.967,5.967,0,0,1-1.523.2,5.84,5.84,0,0,1-1.093-.1,5.807,5.807,0,0,0,5.405,4.02,11.632,11.632,0,0,1-7.188,2.47,12.406,12.406,0,0,1-1.377-.077,16.377,16.377,0,0,0,8.874,2.6c10.638,0,16.458-8.814,16.458-16.456l-.017-.749a11.659,11.659,0,0,0,2.893-3Zm0,0" transform="translate(-1014.839 -508.301)" fill="#fff"/>
</svg>
