<svg xmlns="http://www.w3.org/2000/svg" width="32.639" height="32.937" viewBox="0 0 32.639 32.937">
  <path id="Path_17567" data-name="Path 17567" d="M22.414,1.2A16.262,16.262,0,0,0,.135,14.419C.068,15.1,0,15.785,0,16.469A16.4,16.4,0,0,0,16.319,32.937,16.489,16.489,0,0,0,22.414,1.2Zm-.542,16.2L16.759,22.55h0a.708.708,0,0,1-.2.137h0a.5.5,0,0,1-.237.034h0c-.068,0-.169-.034-.237-.034h0c-.068-.034-.169-.068-.2-.137l-5.112-5.159a.687.687,0,0,1,0-.923.672.672,0,0,1,.914,0l4.029,4.066V9.669a.643.643,0,1,1,1.287,0V20.534l4.029-4.066a.672.672,0,0,1,.914,0A.693.693,0,0,1,21.872,17.391Z" transform="translate(32.639 32.937) rotate(180)" fill="#45d33d"/>
</svg>
