<svg xmlns="http://www.w3.org/2000/svg" width="26.999" height="26.999" viewBox="0 0 26.999 26.999">
  <g id="noun-clock-4924560" transform="translate(-105.002 -35)">
    <path id="Path_12863" data-name="Path 12863" d="M118.5,35a13.514,13.514,0,1,0,9.541,3.958A13.5,13.5,0,0,0,118.5,35Zm0,25.071a11.583,11.583,0,1,1,8.178-3.392,11.571,11.571,0,0,1-8.178,3.392Z" transform="translate(0)" fill="#45d33d"/>
    <path id="Path_12864" data-name="Path 12864" d="M339.25,146.75h-4.821v-5.786a.964.964,0,1,0-1.928,0v6.75a.964.964,0,0,0,.964.964h5.786a.964.964,0,1,0,0-1.929Z" transform="translate(-214.963 -99.215)" fill="#45d33d"/>
  </g>
</svg>
