<svg xmlns="http://www.w3.org/2000/svg" width="68.75" height="40" viewBox="0 0 68.75 40">
  <path id="Bolt_logo" d="M55.262,0V30.074H48.126V1.5ZM34.945,32.924a3.538,3.538,0,1,1-3.568,3.538A3.553,3.553,0,0,1,34.945,32.924Zm0-24.383A10.919,10.919,0,1,1,23.934,19.459,10.966,10.966,0,0,1,34.945,8.541Zm0,14.457a3.538,3.538,0,1,0-3.568-3.538A3.551,3.551,0,0,0,34.945,23ZM12.5,23a2.211,2.211,0,1,0,0-4.423H7.146V23ZM7.146,7.076V11.5H11.11a2.211,2.211,0,1,0,0-4.423Zm11.922,7.1a9.187,9.187,0,0,1,2.785,6.614,9.326,9.326,0,0,1-9.365,9.288H0V0H11.1a9.326,9.326,0,0,1,9.366,9.287A9.137,9.137,0,0,1,19.068,14.172ZM68.74,16.02H65.182v5.553c0,1.681.545,2.919,1.972,2.919a6,6,0,0,0,1.6-.206v5.209a7.4,7.4,0,0,1-3.479.885h-.089c-.089,0-.169-.01-.258-.01h-.069c-.04,0-.089-.01-.129-.01-3.984-.206-6.69-2.693-6.69-7.007V5.042l7.136-1.5V8.943H68.74Z" fill="#fff" fill-rule="evenodd"/>
</svg>
