<svg id="Group_2920" data-name="Group 2920" xmlns="http://www.w3.org/2000/svg" xmlns:xlink="http://www.w3.org/1999/xlink" width="2411.622" height="850.975" viewBox="0 0 2411.622 850.975">
  <defs>
    <clipPath id="clip-path">
      <rect id="Rectangle_1406" data-name="Rectangle 1406" width="2411.622" height="850.975" fill="#f8f8f8"/>
    </clipPath>
  </defs>
  <g id="Group_2919" data-name="Group 2919" clip-path="url(#clip-path)">
    <path id="Path_13049" data-name="Path 13049" d="M0,526.786V850.975H2411.619V526.786c-19.394-31.17-40.53-61.962-62.812-91.518A1268.762,1268.762,0,0,0,2232.4,301.525a1209.281,1209.281,0,0,0-132.174-114.212,1078.808,1078.808,0,0,0-143.85-90.55C1845.1,38.737,1732.019,6.479,1620.248.88,1608.715.3,1596.953,0,1585.288,0c-3.924,0-7.919.035-11.876.1a675.552,675.552,0,0,0-79.487,6.1,664.934,664.934,0,0,0-77.882,15.446A679.61,679.61,0,0,0,1340,46.381a720.691,720.691,0,0,0-74.046,33.983c-39.82,21.074-78.727,43.583-116.35,65.346l-.525.3-.1.065-.378.226-.047.026c-117.309,67.854-228.106,131.939-357.379,153.694a662.007,662.007,0,0,1-97.587,8.993c-3.819.067-7.685.1-11.486.1-20.769,0-41.981-.98-63.041-2.907a746.061,746.061,0,0,1-76.087-11.069c-25.591-5.033-51.813-11.53-77.961-19.3-26.067-7.738-53.021-17.03-80.135-27.618-30.4-11.885-61.639-25.744-92.841-41.189s-63.211-32.874-95.194-51.839c-31.877-18.907-64.651-39.9-97.4-62.4S33.258,45.788,0,19.927" transform="translate(0.003)" fill="#f8f8f8"/>
  </g>
</svg>
