<svg version="1.2" xmlns="http://www.w3.org/2000/svg" viewBox="0 0 331 520" width="331" height="520">
	<title>insight-bg-svg</title>
	<defs>
		<clipPath clipPathUnits="userSpaceOnUse" id="cp1">
			<path d="m-1434-449h1799.5v1272.51h-1799.5z"/>
		</clipPath>
		<clipPath clipPathUnits="userSpaceOnUse" id="cp2">
			<path d="m-999.66 210.1h27.44v110.76h-27.44z"/>
		</clipPath>
		<clipPath clipPathUnits="userSpaceOnUse" id="cp3">
			<path d="m-1434-449h1799.5v1272.51h-1799.5z"/>
		</clipPath>
	</defs>
	<style>
		.s0 { fill: #171a43 } 
		.s1 { fill: #c66d53 } 
		.s2 { fill: #455158 } 
		.s3 { fill: #060708 } 
		.s4 { fill: #e8e8ea } 
		.s5 { fill: #b44e56 } 
		.s6 { fill: #ffffff } 
		.s7 { fill: #787878 } 
		.s8 { fill: #6e6e6f } 
		.s9 { fill: #50cc1a } 
	</style>
	<g id="Group_2481">
		<g id="Clip-Path: Clip-Path: Group_2480" clip-path="url(#cp1)">
			<g id="Clip-Path: Group_2480">
				<g id="Group_2480">
					<g id="Group_2479" style="opacity: 0">
						<g id="Group_2478">
							<g id="Clip-Path: Clip-Path: Group_2477" clip-path="url(#cp2)">
								<g id="Clip-Path: Group_2477">
									<g id="Group_2477">
									</g>
								</g>
							</g>
						</g>
					</g>
				</g>
			</g>
		</g>
	</g>
	<g id="Group_2483">
		<g id="Clip-Path: Clip-Path: Group_2482" clip-path="url(#cp3)">
			<g id="Clip-Path: Group_2482">
				<g id="Group_2482">
				</g>
			</g>
		</g>
	</g>
	<g id="Folder 2">
		<g id="Folder 1">
			<g id="Folder 3">
				<path id="Path_12818" class="s0" d="m274.7 520l-55.3-0.5q-0.3-1-0.5-2-0.3-1-0.4-2.1-0.2-1-0.3-2-0.1-1.1-0.1-2.1-0.1-1.5 0-3 0-1.5 0.2-3 0.2-1.5 0.5-2.9 0.3-1.5 0.7-2.9l22.4-7.8c-0.3 0.1 6.6 9.7 7.3 10.4q1.5 1.6 3.2 2.9 1.7 1.3 3.6 2.3 1.8 1.1 3.8 1.9 2 0.8 4.1 1.3c4 0.9 13-0.1 12.7 6.2q0 0.5-0.2 0.9-0.1 0.5-0.4 0.9-0.2 0.5-0.6 0.8-0.3 0.4-0.7 0.7z"/>
				<path id="Path_12819" class="s0" d="m130.2 518.9q-0.3-0.4-0.5-0.8-0.3-0.5-0.5-0.9-0.1-0.5-0.1-1c-0.2-6.4 9-5.3 13-6.1q2.2-0.5 4.2-1.2 2.1-0.8 4-1.8 1.9-1.1 3.6-2.4 1.8-1.3 3.3-2.8c0.7-0.7 8-10.4 7.6-10.5l22.7 8.3q0.4 1.5 0.6 2.9 0.3 1.5 0.5 3.1 0.1 1.5 0.2 3 0 1.5-0.1 3 0 1.1-0.1 2.2-0.2 1-0.3 2.1-0.2 1-0.5 2-0.2 1.1-0.5 2.1l-56.3-0.6q-0.4-0.2-0.8-0.6z"/>
				<path id="Path_12820" class="s0" d="m147.1 231.4l66.6 6.5q-6.3 78.1-12.7 156.2c-2.6 31.7-6.6 81.6-9.2 113.4q-3.2 1.1-6.4 1.8-3.3 0.8-6.6 1-3.3 0.2-6.6 0-3.3-0.2-6.6-1-2.2-0.5-4.4-1.2-2.2-0.7-4.4-1.7-2.1-0.9-4.1-2-2-1.2-3.9-2.5l-1.7-136.6z"/>
				<path id="Path_12821" class="s0" d="m261 366.6q-0.8 68.3-1.7 136.6-1.9 1.3-3.9 2.5-2 1.1-4.2 2.1-2.1 0.9-4.3 1.6-2.2 0.7-4.4 1.3-3.3 0.7-6.6 0.9-3.3 0.2-6.6 0-3.4-0.2-6.6-0.9-3.3-0.7-6.4-1.9c-2.6-31.8-6.7-81.7-9.3-113.4q-6.3-78.1-12.6-156.2l66.6-6.5z"/>
				<path id="Path_12822" class="s1" d="m120 143.1l-23.1 15q-8.5-1.1-17.4-2.9-9.7-2-19.3-4.8-9.5-2.7-18.8-6.3-9.3-3.5-18.2-7.7-9-4.3-17.6-9.2 1.9-8.5 3.8-16.9l78.8 14 5.8-5.3"/>
				<path id="Path_12823" class="s1" d="m291 157.3q-1.4 3.7-2.8 7.3 21.1 34 42.1 68l-14.3 9.9q-7.7-6.2-15-13-7.2-6.7-13.9-14.1-6.7-7.3-12.8-15.1-6.1-7.9-11.6-16.2-5-7.6-9.1-15l5.4-27.1"/>
				<path id="Path_12824" class="s2" d="m127.4 92.4c10.7-8.3 20-15.4 34-16.8 1.6-0.2 20.7 0 20.4 1.1q-0.1 0.8-0.3 1.7c0-0.2 4.9 0.3 5.2 0.4l18.5 1.4 22.8 1.8c4.8 0.3 9.7 0.6 14.6 1q1.4 0 2.7 0.2 1.4 0.1 2.7 0.4 1.4 0.2 2.7 0.6 1.3 0.3 2.6 0.8 1.3 0.5 2.5 1.2 1.2 0.6 2.3 1.4 1.2 0.7 2.3 1.5 1.1 0.9 2.1 1.8 1.2 0.9 2.3 1.9 1.2 1 2.3 2.1 1.1 1.1 2.1 2.2 1.1 1.1 2.1 2.2 1.1 1.4 2.2 2.8 1.1 1.4 2 2.8 1 1.5 1.9 3 0.9 1.5 1.7 3 8.2 31 16.3 62-1.5 1.3-3.3 2.4-1.7 1.1-3.5 2-1.8 0.9-3.7 1.7-1.9 0.7-3.9 1.2-2.7 0.7-5.5 1-2.8 0.2-5.7 0.1-2.8-0.2-5.6-0.7-2.8-0.6-5.4-1.5-1-1.3-1.8-2.6-0.9-1.4-1.8-2.7-0.8-1.4-1.6-2.8-0.8-1.3-1.5-2.7 6.1 33.9 12.2 67.9c-9.2 4.9-18.9 8.8-28.9 11.7-10 2.9-20.3 4.7-30.6 5.4-10.4 0.8-20.9 0.5-31.2-0.9-10.3-1.5-20.4-3.9-30.2-7.5v-110.3q-3.1 2.2-6.3 4.1-3.2 1.8-6.6 3.5-3.3 1.6-6.8 2.9-3.5 1.4-7.1 2.5-2.7-0.9-5.2-2.1-2.6-1.3-4.9-2.9-2.3-1.6-4.4-3.5-2.1-2-3.8-4.2-1.3-1.6-2.3-3.3-1.1-1.8-2-3.6-0.9-1.8-1.5-3.7-0.7-2-1.2-3.9 18.1-14 36.1-28z"/>
				<path id="Path_12825" class="s1" d="m181.1 79.1l1.9-18.1c0.8-7.2 8.7-12.5 17.5-11.7 8.8 0.7 15.4 7.3 14.6 14.5l-1.9 18.1c-0.8 7.2-8.6 12.5-17.4 11.7-8.9-0.7-15.5-7.3-14.7-14.5z"/>
				<path id="Path_12826" class="s3" d="m178 46.1l3-27.1c0.8-7 7.8-12.2 15.6-11.5l19.6 1.8c7.8 0.7 13.5 7 12.7 14.1l-3 27.1c-1.4 11.9-13.2 20.6-26.4 19.4-13.2-1.2-22.9-11.9-21.5-23.8z"/>
				<path id="Path_12827" class="s1" d="m225.3 24.1l-1.9 17c-0.7 5.9-6.6 10.2-13.1 9.6l-16.4-1.5c-6.5-0.6-11.3-5.9-10.6-11.8l1.9-16.9c1.1-10 11.1-17.3 22.1-16.3 11 1 19.1 10 18 19.9z"/>
				<path id="Path_12828" class="s3" d="m196.4 3.4c10.7 0.7 12.7-3.6 22.7-2.5 3.9 0.5 7.7 0.9 10.3 3.5 5.2 5.4 3.2 17.6-4.3 21-7.4 3.3-17.2-3.1-21.5-7.9-3.3-3.6-6.3-8.7-6-8q0.3 0.8 0.4 1.6 0.2 0.8 0.2 1.6 0 0.9-0.2 1.7-0.1 0.8-0.4 1.6c-1.3 3-4.9 5.1-8.4 5.6q-0.8 0.1-1.7 0.1-0.9 0-1.8-0.1-0.8-0.2-1.7-0.5-0.8-0.3-1.6-0.8c-4.4-3-2.8-9.4-2.7-9.8q0.4-1.1 1-2.2 0.6-1.1 1.5-2 0.8-1 1.8-1.7 1-0.7 2.1-1.2c3.3-1.4 5.4-0.3 10.3 0z"/>
				<path id="Path_12829" class="s4" d="m216.1 65.8q-0.1 0.4-0.2 0.8-0.2 0.5-0.4 0.9-0.2 0.4-0.4 0.7-0.2 0.4-0.5 0.8l0.2-2.4q0.7-0.4 1.3-0.8z"/>
				<path id="Path_12830" class="s5" d="m183.2 61.9q1.6 1.7 3.4 3.1 1.9 1.4 4 2.4 2.1 1.1 4.3 1.7 2.3 0.6 4.6 0.8 1.2 0.1 2.4 0.1 1.7 0 3.4-0.2 1.7-0.2 3.3-0.7 1.6-0.4 3.2-1 1.6-0.7 3-1.5l-0.2 2.4c-2.8 3.7-8.4 6.2-14.9 6.2-9.3 0-16.8-5.1-16.8-11.3q0-0.2 0.1-0.5 0-0.2 0-0.5 0-0.2 0.1-0.5 0-0.2 0.1-0.5z"/>
				<path id="Path_12831" class="s3" d="m199.7 52.6c9.2 0 16.7 5.1 16.7 11.3q0 0.3-0.1 0.5 0 0.2 0 0.5 0 0.2-0.1 0.4 0 0.3-0.1 0.5-0.6 0.4-1.3 0.8-1.4 0.8-3 1.5-1.6 0.6-3.2 1-1.6 0.5-3.3 0.7-1.7 0.2-3.4 0.2-1.2 0-2.4-0.1-2.3-0.2-4.6-0.8-2.2-0.6-4.3-1.7-2.1-1-4-2.4-1.8-1.4-3.4-3.1c1.4-5.3 8.2-9.3 16.5-9.3z"/>
				<path id="Path_12833" class="s6" d="m210.4 53.8q-0.2 1.1-0.9 2.1-0.6 0.9-1.6 1.6-0.9 0.6-2 0.9-1.2 0.3-2.3 0.1-1.1 0-2.1-0.5-1.1-0.5-1.9-1.3-0.7-0.8-1.2-1.9-0.4-1-0.4-2.2z"/>
				<path id="Path_12834" class="s1" d="m5.4 123.9q-0.7-0.7-1.1-1.6-0.4-0.9-0.4-2 0-1 0.4-1.9l2.2-5.5q0.3-0.9 1-1.7 0.7-0.7 1.7-1.1 0.9-0.4 1.9-0.4 1 0 2 0.4l4.3 1.7q1 0.4 1.7 1.1 0.7 0.7 1.1 1.6 0.4 1 0.4 2 0 1-0.3 1.9l-2.2 5.5q-0.4 1-1.1 1.7-0.7 0.7-1.7 1.1-0.9 0.4-1.9 0.4-1 0-2-0.3l-4.3-1.8q-0.9-0.4-1.7-1.1z"/>
				<path id="Path_12835" class="s1" d="m17.9 101.8q0-0.6 0.1-1.1 0.2-0.5 0.6-0.9 0.4-0.4 0.9-0.7l0.4-0.1q0.5-0.3 1-0.3 0.6 0 1.1 0.2 0.5 0.2 0.9 0.6 0.4 0.3 0.6 0.8l6.9 15.1q0.2 0.5 0.3 1.1 0 0.5-0.2 1.1-0.2 0.5-0.6 0.9-0.3 0.4-0.8 0.6l-0.4 0.2q-0.5 0.2-1.1 0.2-0.5 0.1-1.1-0.1-0.5-0.2-0.9-0.6-0.4-0.4-0.6-0.9l-6.9-15.1q-0.2-0.5-0.2-1z"/>
				<path id="Path_12836" class="s1" d="m4.9 107.6q-0.4-0.3-0.6-0.9-0.2-0.5-0.2-1 0-0.6 0.2-1.1l0.2-0.4q0.2-0.5 0.5-0.9 0.4-0.4 0.9-0.6 0.5-0.2 1.1-0.2 0.5 0 1.1 0.2l15.4 6.2q0.5 0.2 0.9 0.6 0.4 0.3 0.6 0.8 0.2 0.6 0.2 1.1 0 0.6-0.2 1.1l-0.2 0.4q-0.2 0.5-0.5 0.9-0.4 0.4-0.9 0.6-0.5 0.2-1.1 0.2-0.5 0-1.1-0.2l-15.4-6.2q-0.5-0.2-0.9-0.6z"/>
				<path id="Path_12837" class="s7" d="m7.9 137.4c2.8-0.2 3.5-0.1 3.5 0.1 0.1 0.2-0.6 0.4-0.5 0.8 0 0.3 0.5 0.4 0.5 0.8 0 0.4-1.1 0.6-1.1 1.1-0.1 0.5 1.2 1 1.1 1.3 0 0.2-0.6 0.2-1.6 0.2-0.9 0-1.6 0.1-2.1 0.1q0.1-2.2 0.2-4.4z"/>
				<path id="Path_12838" fill-rule="evenodd" class="s8" d="m2.3 109.2c0-4.3 2.4-7.7 5.4-7.7 3 0 5.5 3.4 5.5 7.7 0 4.2-2.5 7.6-5.5 7.6-3 0-5.4-3.4-5.4-7.6zm0.8-0.1c0 3.9 2 7 4.6 7 2.6 0 4.7-3.1 4.7-7 0-3.8-2.1-6.9-4.7-6.9-2.5 0-4.6 3.1-4.6 6.9z"/>
				<path id="Path_12839" fill-rule="evenodd" class="s8" d="m3.8 127.9c0-1.6 1.8-3 3.9-3 2.2 0 4 1.3 4 3 0 1.7-1.8 3-4 3-2.1 0-3.9-1.3-3.9-3zm0.7 0c0 1.3 1.5 2.3 3.2 2.3 1.8 0 3.3-1 3.3-2.3 0-1.2-1.5-2.3-3.3-2.3-1.7 0-3.2 1.1-3.2 2.3z"/>
				<path id="Path_12840" class="s9" d="m6.5 126.4q-0.2 0-0.3-0.1-0.1-0.1-0.1-0.3-0.1-0.1-0.1-0.3v-9.3q0-0.2 0.1-0.3 0-0.1 0.1-0.3 0.1-0.1 0.3-0.1 0.1-0.1 0.3-0.1h1.9q0.1 0 0.3 0.1 0.1 0 0.2 0.1 0.2 0.2 0.2 0.3 0.1 0.1 0.1 0.3v9.3q0 0.2-0.1 0.3 0 0.2-0.2 0.3-0.1 0.1-0.2 0.1-0.2 0.1-0.3 0.1h-1.9q-0.2 0-0.3-0.1z"/>
				<path id="Path_12841" class="s8" d="m7.4 142.5q-0.1-0.1-0.2-0.1-0.1-0.1-0.1-0.2-0.1-0.1-0.1-0.2v-11q0-0.2 0.2-0.4 0.2-0.2 0.4-0.2 0.2 0 0.4 0.2 0.1 0.2 0.1 0.4v11q0 0.1 0 0.2-0.1 0.1-0.2 0.2 0 0-0.1 0.1-0.1 0-0.2 0-0.1 0-0.2 0z"/>
				<path id="Path_12842" class="s1" d="m0.6 104l0.2-0.4q0.4-0.6 0.9-1 0.5-0.4 1.2-0.6 0.6-0.2 1.3-0.2 0.6 0 1.3 0.2l3.8 1.2v6.4l-6.7-2c-1.9-0.6-2.7-2.2-2-3.6z"/>
				<path id="Path_12843" fill-rule="evenodd" class="s6" d="m162.6 117.4c1.2 0 2.3 0.8 2.8 1.9 0.4 1.1 0.2 2.3-0.7 3.2-0.8 0.8-2.1 1.1-3.2 0.6-1.1-0.4-1.8-1.5-1.8-2.7q0-0.6 0.2-1.1 0.2-0.6 0.7-1 0.4-0.4 0.9-0.6 0.6-0.2 1.1-0.3zm0 4.6c0.7 0 1.3-0.4 1.5-1 0.3-0.6 0.1-1.3-0.3-1.7-0.5-0.5-1.2-0.6-1.8-0.4-0.6 0.3-1 0.8-1 1.5q0 0.3 0.2 0.6 0.1 0.3 0.3 0.5 0.2 0.3 0.5 0.4 0.3 0.1 0.6 0.1z"/>
				<path id="Path_12844" fill-rule="evenodd" class="s6" d="m174.7 117.4c1.1 0 2.2 0.8 2.7 1.9 0.4 1.1 0.2 2.3-0.7 3.2-0.8 0.8-2.1 1.1-3.2 0.6-1.1-0.4-1.8-1.5-1.8-2.7q0-0.6 0.2-1.1 0.2-0.6 0.7-1 0.4-0.4 0.9-0.6 0.6-0.2 1.2-0.3zm0 4.6c0.6 0 1.2-0.4 1.4-1 0.3-0.6 0.1-1.3-0.3-1.7-0.5-0.5-1.2-0.6-1.8-0.4-0.6 0.3-1 0.8-1 1.5q0 0.3 0.2 0.6 0.1 0.3 0.3 0.5 0.2 0.3 0.5 0.4 0.3 0.1 0.7 0.1z"/>
				<path id="Path_12845" class="s6" d="m169 121.9q0.1 0.1 0.1 0 0.1 0 0.1 0 0.1 0 0.1 0 0.1 0 0.1-0.1 0 0 0.1 0 0-0.1 0-0.1 0-0.1 0.1-0.1 0 0 0-0.1 0 0 0-0.1v-2.4h-0.7v-1.4h0.7v-1.1h1.3v1.1h0.6v1.4h-0.6v2.4q0 0.2 0 0.3 0 0.1 0 0.3-0.1 0.1-0.1 0.2-0.1 0.2-0.2 0.3 0 0 0 0.1-0.1 0-0.1 0.1-0.1 0-0.1 0.1 0 0-0.1 0.1-0.1 0.1-0.3 0.2-0.1 0-0.3 0.1-0.1 0.1-0.3 0.1-0.2 0-0.3 0h-0.1-0.2v-1.4z"/>
				<path id="Path_12846" class="s6" d="m166 121.9q0 0.1 0.1 0 0 0 0.1 0 0 0 0.1 0 0 0 0.1-0.1 0.1-0.1 0.1-0.1 0-0.1 0-0.1 0 0 0-0.1 0 0 0-0.1v-2.4h-0.6v-1.4h0.6v-1.1h1.4v1.1h0.6v1.4h-0.6v2.4q0 0.2 0 0.3 0 0.1-0.1 0.3 0 0.1-0.1 0.2 0 0.2-0.1 0.3 0 0-0.1 0.1 0 0 0 0.1-0.1 0-0.1 0.1-0.1 0-0.1 0.1-0.2 0.1-0.3 0.2-0.1 0-0.3 0.1-0.2 0.1-0.3 0.1-0.2 0-0.4 0h-0.3v-1.4z"/>
				<path id="Path_12847" class="s9" d="m157.5 115.2q0.2 0 0.4-0.1 0.2 0 0.4 0 0.2-0.1 0.4-0.1 0.2 0 0.3 0 0.2 0 0.4-0.1 0.2 0 0.4 0 0.2 0 0.4-0.1 0.2 0 0.4-0.1 0.2-0.1 0.4-0.2 0.2-0.1 0.4-0.3 0.2-0.1 0.4-0.3 0.1-0.2 0.3-0.4 0.2-0.2 0.4-0.4 0.4-0.5 1-0.9 0.5-0.4 1-0.7 0.6-0.3 1.2-0.5 0.6-0.3 1.2-0.4 1.1-0.3 2.1-0.4 1.1-0.1 2.2-0.1 1.1 0.1 2.1 0.4 1 0.3 2 0.8 0.5 0.2 1 0.4 0.5 0.3 0.9 0.5 0.5 0.3 1 0.6 0.4 0.3 0.9 0.6 0.7 0.5 1.4 1l0.2 0.2q0 0 0.1 0 0 0.1 0.1 0.1 0 0 0.1 0.1 0 0 0.1 0 0.1 0.1 0.3 0.2 0.1 0.1 0.2 0.2 0.2 0.1 0.3 0.2 0.1 0.1 0.2 0.3 0.1 0.2 0.2 0.5 0.1 0.2 0.2 0.5 0 0.3 0 0.5 0 0.3-0.1 0.6 0 0.4-0.1 0.7-0.1 0.4-0.2 0.7-0.2 0.4-0.4 0.7-0.2 0.3-0.4 0.5-0.4 0.2-0.8 0.3-0.4 0.1-0.8 0.2-0.4 0.1-0.8 0.2-0.4 0-0.8 0 0.1 0 0.1-0.1 0-0.1 0-0.2 0-0.1 0-0.1 0-0.1 0-0.2 0-0.1 0-0.2 0-0.1 0-0.2 0-0.1 0-0.2-0.1-0.1-0.1-0.2 0.3 0 0.6-0.1 0.3 0 0.6 0 0.2-0.1 0.5-0.2 0.3 0 0.6-0.1 0.1-0.2 0.2-0.4 0.1-0.2 0.2-0.4 0.1-0.2 0.1-0.4 0.1-0.3 0.1-0.5c0-0.6 0.1-0.9-0.1-1.1q-0.1-0.1-0.1-0.1-0.1-0.1-0.1-0.2-0.1 0-0.2 0-0.1-0.1-0.1-0.1-0.1-0.1-0.2-0.1-0.1 0-0.1-0.1-0.1 0-0.2-0.1 0 0-0.1-0.1l-0.2-0.1q-0.7-0.6-1.4-1-0.4-0.3-0.8-0.6-0.4-0.3-0.9-0.5-0.4-0.2-0.8-0.5-0.5-0.2-0.9-0.4-0.9-0.4-1.8-0.7-0.9-0.2-1.9-0.3-0.9-0.1-1.9 0-0.9 0.1-1.8 0.3-0.6 0.2-1.1 0.4-0.5 0.2-1 0.4-0.5 0.3-0.9 0.6-0.5 0.4-0.9 0.8-0.1 0.2-0.3 0.4-0.2 0.2-0.5 0.5-0.2 0.2-0.5 0.4-0.3 0.3-0.6 0.4-0.3 0.2-0.6 0.3-0.2 0.1-0.4 0.1-0.3 0.1-0.5 0.1-0.2 0.1-0.5 0.1-0.2 0-0.4 0l-0.3 0.1q-0.2 0-0.3 0-0.2 0-0.4 0-0.1 0.1-0.3 0.1-0.1 0.1-0.3 0.1-0.2 0.1-0.5 0.3-0.2 0.2-0.3 0.5-0.2 0.2-0.3 0.5 0 0.3 0 0.6 0 0.2 0.1 0.4 0 0.2 0.2 0.4 0.1 0.2 0.3 0.3 0.2 0.1 0.4 0.2 0.2 0 0.4 0 0.2 0 0.3 0 0.2 0 0.4 0 0.2 0 0.4 0 0 0.2-0.1 0.4 0 0.2 0 0.4 0.1 0.2 0.1 0.3 0 0.2 0.1 0.4-0.3 0-0.5 0-0.3 0-0.5 0-0.2-0.1-0.5-0.1-0.2 0-0.5 0-0.4-0.1-0.8-0.4-0.4-0.2-0.6-0.6-0.3-0.3-0.5-0.7-0.1-0.5-0.2-0.9 0-0.5 0.1-1 0.2-0.6 0.4-1 0.3-0.4 0.7-0.8 0.4-0.3 0.9-0.5 0.2-0.1 0.4-0.2z"/>
				<path id="Path_12848" fill-rule="evenodd" class="s6" d="m165.8 116.5h0.1v0.6h-0.1zm-1-0.1v0.7h0.1v-0.5l0.2 0.5h0.1l0.2-0.5v0.5h0.1v-0.7h-0.2l-0.2 0.5-0.2-0.5z"/>
				<path id="Path_12849" class="s6" d="m166.1 116.6h-0.2v0.5h-0.1v-0.5h-0.2v-0.1h0.5z"/>
			</g>
		</g>
	</g>
</svg>