<svg version="1.2" xmlns="http://www.w3.org/2000/svg" viewBox="0 0 750 676" width="750" height="676">
	<title>help-svg</title>
	<defs>
		<clipPath clipPathUnits="userSpaceOnUse" id="cp1">
			<path d="m-207-1h956.36v676.28h-956.36z"/>
		</clipPath>
		<clipPath clipPathUnits="userSpaceOnUse" id="cp2">
			<path d="m-207-1h956.36v676.28h-956.36z"/>
		</clipPath>
		<clipPath clipPathUnits="userSpaceOnUse" id="cp3">
			<path d="m-207-1h956.36v676.28h-956.36z"/>
		</clipPath>
		<clipPath clipPathUnits="userSpaceOnUse" id="cp4">
			<path d="m-207-1h956.36v676.28h-956.36z"/>
		</clipPath>
		<clipPath clipPathUnits="userSpaceOnUse" id="cp5">
			<path d="m-207-1h956.36v676.28h-956.36z"/>
		</clipPath>
		<clipPath clipPathUnits="userSpaceOnUse" id="cp6">
			<path d="m-207-1h956.36v676.28h-956.36z"/>
		</clipPath>
		<clipPath clipPathUnits="userSpaceOnUse" id="cp7">
			<path d="m-207-1h956.36v676.28h-956.36z"/>
		</clipPath>
		<clipPath clipPathUnits="userSpaceOnUse" id="cp8">
			<path d="m-207-1h956.36v676.28h-956.36z"/>
		</clipPath>
		<clipPath clipPathUnits="userSpaceOnUse" id="cp9">
			<path d="m-207-1h956.36v676.28h-956.36z"/>
		</clipPath>
		<clipPath clipPathUnits="userSpaceOnUse" id="cp10">
			<path d="m-207-1h956.36v676.28h-956.36z"/>
		</clipPath>
		<clipPath clipPathUnits="userSpaceOnUse" id="cp11">
			<path d="m-207-1h956.36v676.28h-956.36z"/>
		</clipPath>
		<clipPath clipPathUnits="userSpaceOnUse" id="cp12">
			<path d="m-207-1h956.36v676.28h-956.36z"/>
		</clipPath>
	</defs>
	<style>
		.s0 { fill: #ffffff } 
		.s1 { fill: #171b43 } 
		.s2 { fill: #171b44 } 
		.s3 { fill: #191016 } 
		.s4 { fill: #d17850 } 
		.s5 { fill: #455158 } 
		.s6 { fill: #bc6d3e } 
		.s7 { fill: #f18860 } 
		.s8 { fill: #040506 } 
		.s9 { fill: #fbfdfc } 
		.s10 { fill: #e7584f } 
		.s11 { fill: #d7d7d7 } 
		.s12 { fill: #414c55 } 
		.s13 { fill: #1c1a46 } 
		.s14 { fill: #884637 } 
		.s15 { fill: #24214e } 
		.s16 { fill: #75748d } 
		.s17 { fill: #807c9b } 
		.s18 { fill: #72392e } 
		.s19 { fill: #50cc1a } 
	</style>
	<g id="Group_2476">
		<path id="Path_12724" fill-rule="evenodd" class="s0" d="m488.3 268h0.1l0.1 0.2 0.1-0.2h0.1l-0.1 0.3v-0.2l-0.1 0.2h-0.1v-0.2l-0.1 0.2zm-0.4 0h0.3-0.1v0.3h-0.1v-0.3h-0.1zm0.2 0.4v-0.3h0.1v-0.1h-0.3v0.1h0.1v0.3zm-0.1-0.4h0.2v0.1h-0.1v0.3-0.3h-0.1z"/>
		<g id="Group_2453">
			<g id="Clip-Path: Group_2452" clip-path="url(#cp1)">
				<g id="Group_2452">
					<path id="Path_12725" fill-rule="evenodd" class="s0" d="m238 248.7q0.2 0.1 0.4 0.2 0.2 0.2 0.4 0.4 0.1 0.2 0.1 0.5c0.1 0.5-0.2 1.1-0.7 1.3-0.4 0.3-1 0.2-1.4-0.1-0.4-0.4-0.6-0.9-0.5-1.4 0.2-0.5 0.6-0.9 1.2-1q0.2 0 0.5 0.1zm0 1.9q0.1-0.1 0.2-0.2 0.1-0.1 0.1-0.2 0-0.2 0-0.3c0-0.3-0.2-0.6-0.5-0.6-0.3-0.1-0.6 0-0.8 0.2-0.1 0.2-0.2 0.5 0 0.8 0.1 0.2 0.4 0.4 0.7 0.4q0.1-0.1 0.3-0.1z"/>
					<path id="Path_12726" fill-rule="evenodd" class="s0" d="m232.6 249.2q0.3 0.1 0.5 0.3 0.2 0.1 0.3 0.4 0.1 0.2 0.2 0.5c0 0.5-0.2 1-0.7 1.3-0.5 0.2-1.1 0.2-1.5-0.2-0.4-0.3-0.6-0.9-0.4-1.4 0.1-0.5 0.6-0.8 1.1-0.9q0.3 0 0.5 0zm0 1.9q0.1 0 0.2-0.1 0.1-0.1 0.1-0.3 0.1-0.1 0.1-0.3c-0.1-0.3-0.3-0.5-0.5-0.6-0.3-0.1-0.6 0-0.8 0.3-0.2 0.2-0.2 0.5-0.1 0.8 0.2 0.2 0.4 0.4 0.7 0.3q0.2 0 0.3-0.1z"/>
					<path id="Path_12727" class="s0" d="m235 250.9v0.6h-0.1q-0.1 0.1-0.2 0 0 0-0.1 0-0.1 0-0.2 0 0-0.1-0.1-0.1 0 0 0 0-0.1-0.1-0.1-0.1 0 0 0 0 0 0-0.1-0.1 0 0 0-0.1-0.1 0-0.1-0.1 0 0 0-0.1 0 0 0-0.1l-0.2-1.1h-0.2l-0.1-0.6h0.3l-0.1-0.5 0.6-0.1 0.1 0.5h0.3l0.1 0.6h-0.3l0.1 1.1q0 0.1 0 0.1 0 0 0 0 0 0 0 0 0 0 0 0.1 0 0 0 0 0 0 0 0 0 0 0.1 0 0 0 0 0 0 0 0 0 0 0 0 0 0.1 0 0.1 0 0 0 0 0z"/>
					<path id="Path_12728" class="s0" d="m236.3 250.8l0.1 0.6h-0.1-0.1q0 0-0.1 0-0.1 0-0.2 0 0 0-0.1-0.1-0.1 0-0.1 0-0.1-0.1-0.1-0.1 0 0 0 0 0 0-0.1-0.1 0 0 0 0 0 0-0.1-0.1 0-0.1 0-0.1-0.1-0.1-0.1-0.1 0-0.1 0-0.1l-0.1-1.2-0.3 0.1v-0.6l0.2-0.1v-0.5h0.6v0.5l0.3-0.1 0.1 0.7h-0.3l0.1 1.1q0 0 0 0 0 0 0 0.1 0 0 0.1 0 0 0 0 0 0 0 0 0 0 0 0 0 0 0 0 0.1 0 0 0 0 0 0 0.1 0 0 0 0 0 0 0 0 0 0.1 0 0.1 0z"/>
					<path id="Path_12729" class="s0" d="m239.8 247.4q0.3 0.1 0.5 0.2 0.2 0.2 0.3 0.4 0.1 0.2 0.2 0.4 0.1 0.2 0.1 0.4 0 0.2 0 0.4-0.1 0.2-0.2 0.4-0.1 0.2-0.2 0.3-0.2 0.1-0.4 0.2-0.1 0-0.2 0-0.1 0-0.2 0.1-0.1 0-0.2 0-0.1 0-0.3 0 0.1 0 0.1-0.1 0 0 0-0.1 0 0 0-0.1 0 0 0-0.1 0 0 0 0 0-0.1-0.1-0.1 0 0 0-0.1 0 0 0 0 0.1 0 0.2 0 0.1-0.1 0.1-0.1 0.1 0 0.2 0 0.1 0 0.2 0 0.1-0.1 0.1-0.1 0.1-0.1 0.2-0.2 0 0 0.1-0.1 0-0.1 0-0.2 0-0.2-0.1-0.3 0-0.1-0.1-0.2-0.1-0.1-0.2-0.2-0.1-0.1-0.2-0.1-0.1 0-0.2-0.1 0 0-0.1 0-0.1 0-0.2 0 0 0-0.1 0h-0.1q-0.1 0-0.2 0-0.1 0-0.3 0-0.1 0-0.2 0-0.1 0-0.2 0-0.1-0.1-0.3-0.1-0.1-0.1-0.2-0.2-0.2-0.1-0.3-0.2-0.1-0.1-0.2-0.2-0.1-0.1-0.2-0.1-0.2-0.2-0.4-0.3-0.2-0.1-0.4-0.2-0.3-0.1-0.5-0.2-0.2-0.1-0.5-0.1-0.4-0.1-0.8-0.1-0.5 0-0.9 0.1-0.4 0.1-0.8 0.3-0.4 0.1-0.8 0.3-0.1 0.2-0.3 0.3-0.2 0.1-0.4 0.2-0.2 0.2-0.4 0.3-0.1 0.1-0.3 0.3-0.3 0.2-0.6 0.5l-0.1 0.1q0 0 0 0 0 0-0.1 0.1 0 0 0 0-0.1 0-0.1 0.1 0 0-0.1 0 0 0 0 0 0 0.1-0.1 0.1 0 0 0 0.1c-0.1 0.1 0 0.2 0 0.5q0 0.1 0 0.2 0.1 0.1 0.1 0.2 0.1 0 0.1 0.1 0.1 0.1 0.2 0.2 0.1 0 0.2 0 0.1 0 0.3 0.1 0.1 0 0.2 0 0.2 0 0.3 0 0 0 0 0.1 0 0 0 0 0 0.1 0 0.1 0 0.1 0 0.1 0 0.1 0 0.1 0 0 0 0.1 0 0 0 0 0 0.1 0 0.1-0.1 0-0.3 0-0.2 0-0.4 0-0.2 0-0.3-0.1-0.2 0-0.4-0.1-0.1-0.1-0.2-0.2-0.1-0.1-0.2-0.3-0.1-0.1-0.2-0.3 0-0.1 0-0.3-0.1-0.1-0.1-0.2 0-0.1 0-0.3 0-0.1 0-0.2 0.1-0.1 0.1-0.2 0-0.1 0.1-0.2 0 0 0.1-0.1 0 0 0.1-0.1 0.1 0 0.1-0.1 0.1 0 0.1 0 0 0 0 0 0 0 0.1-0.1 0 0 0 0l0.1-0.1q0.3-0.3 0.6-0.5 0.1-0.2 0.3-0.3 0.2-0.2 0.4-0.3 0.2-0.1 0.4-0.3 0.2-0.1 0.4-0.2 0.4-0.3 0.9-0.4 0.4-0.2 0.9-0.3 0.5-0.1 1-0.1 0.5 0 0.9 0.1 0.3 0 0.6 0.1 0.3 0.1 0.6 0.2 0.2 0.1 0.5 0.3 0.2 0.1 0.4 0.3 0.1 0.1 0.2 0.2 0.1 0 0.2 0.1 0.1 0.1 0.2 0.1 0.1 0.1 0.2 0.2 0.1 0 0.2 0 0.1 0 0.1 0.1 0.1 0 0.2 0 0.1 0 0.2 0 0.1 0 0.2 0h0.1q0.1 0 0.2 0 0.1 0 0.2 0 0.1 0 0.2 0 0.1 0 0.2 0.1"/>
				</g>
			</g>
		</g>
		<path id="Path_12730" fill-rule="evenodd" class="s0" d="m235.9 248.4h0.1v0.2-0.2h0.1v-0.1 0.1h-0.1v0.2-0.2h-0.1zm0-0.1h0.2zm0 0h0.1v0.3-0.3h0.1-0.2zm0.6-0.1l-0.1 0.3-0.1-0.2h-0.1v0.3h0.1v-0.3l0.1 0.3 0.1-0.3v0.2h0.1l-0.1-0.3z"/>
		<path id="Path_12731" class="s1" d="m511 564.1l-26.4 0.1-0.3-22.8 26.4-2.8z"/>
		<g id="Group_2455">
			<g id="Clip-Path: Group_2454" clip-path="url(#cp2)">
				<g id="Group_2454">
					<path id="Path_12732" class="s1" d="m484.4 568.6v-10.5c2 4.1 16.5 2.2 16.5 2.2l5.7-4c2.2-1.6 5.2-0.7 5.6 1.6l0.3 1.5 16.2 10.1c0 0 1 2-2.2 2.9q-0.1 0-0.2 0-0.1 0-0.2 0.1-0.1 0-0.1 0-0.1 0-0.2 0l-34.1-0.4c-8.4-0.2-7.3-3.5-7.3-3.5z"/>
					<path id="Path_12733" class="s2" d="m504 327.7l10.2 124.8v103.6q-3.7 1.8-7.7 3.2-4 1.4-8.1 2.2-4 0.9-8.2 1.2-4.2 0.4-8.4 0.2c0 2.1-5.7-70.1-10.6-106.5q-1.7-12-3.7-24-2-12-4.3-23.9-2.2-11.9-4.9-23.8-2.6-11.8-5.5-23.6z"/>
				</g>
			</g>
		</g>
		<path id="Path_12734" class="s3" d=""/>
		<path id="Path_12735" class="s1" d="m419.3 538.6l26.4 2.8-0.3 22.8-26.4-0.1z"/>
		<g id="Group_2457">
			<g id="Clip-Path: Group_2456" clip-path="url(#cp3)">
				<g id="Group_2456">
					<path id="Path_12736" class="s1" d="m438.3 572.1l-34.1 0.4q-0.1 0-0.2 0-0.1 0-0.2 0-0.1-0.1-0.1-0.1-0.1 0-0.2 0c-3.3-0.9-2.2-2.9-2.2-2.9l16.2-10.1 0.2-1.5c0.5-2.3 3.4-3.2 5.7-1.6l5.7 4c0 0 14.5 1.9 16.4-2.2l0.1 10.5c0 0 1.1 3.3-7.3 3.5z"/>
					<path id="Path_12737" class="s2" d="m477.4 361.1q-3 11.8-5.6 23.6-2.6 11.9-4.9 23.8-2.3 11.9-4.3 23.9-1.9 12-3.6 24c-4.9 36.4-10.7 108.6-10.7 106.5q-4.1 0.2-8.3-0.2-4.2-0.3-8.3-1.2-4.1-0.8-8-2.2-4-1.4-7.8-3.2v-103.6l10.3-124.8z"/>
				</g>
			</g>
		</g>
		<path id="Path_12738" class="s3" d=""/>
		<g id="Group_2459">
			<g id="Clip-Path: Group_2458" clip-path="url(#cp4)">
				<g id="Group_2458">
					<path id="Path_12739" class="s4" d="m421.6 266c0 0-23.5 17.2-30.5 19.4-7.1 2.2-64.8-21.9-64.8-21.9l7.1-18 50.1 12 22.8-16.5z"/>
					<path id="Path_12740" class="s4" d="m305.6 256.1q0-0.3 0.2-0.7 0.1-0.3 0.4-0.5 0.3-0.3 0.6-0.4 0.3-0.1 0.7-0.1l6.1 0.2q0.2 0 0.3-0.2 0.2-0.1 0.2-0.3 0-0.1-0.1-0.3-0.1-0.1-0.3-0.1l-8.9-1.4q-0.4-0.1-0.7-0.3-0.3-0.2-0.5-0.5-0.1-0.3-0.2-0.6 0-0.4 0.1-0.7 0.2-0.4 0.5-0.7 0.2-0.3 0.6-0.5 0.3-0.2 0.7-0.2 0.4-0.1 0.8-0.1l9.1 1.4q0.1 0 0.1 0 0.1 0 0.2 0 0.1-0.1 0.1-0.1 0.1-0.1 0.1-0.2v-0.1q0.1-0.1 0.1-0.2 0-0.1-0.1-0.1 0-0.1-0.1-0.2 0 0-0.1-0.1l-9.7-3.5q-0.3-0.1-0.6-0.3-0.2-0.3-0.4-0.6-0.2-0.3-0.2-0.7-0.1-0.3 0-0.7 0.2-0.3 0.4-0.6 0.2-0.3 0.6-0.5 0.3-0.2 0.7-0.2 0.4 0 0.8 0.1l9.6 3.6q0.1 0 0.2 0 0.1 0 0.2-0.1 0.1 0 0.1-0.1 0.1 0 0.1-0.1l0.2-0.5q0 0 0-0.1 0-0.1 0-0.2 0-0.1-0.1-0.1-0.1-0.1-0.1-0.1l-8.5-4.5q-0.4-0.1-0.6-0.4-0.2-0.2-0.4-0.6-0.1-0.3-0.1-0.7 0-0.3 0.2-0.7 0.1-0.3 0.4-0.6 0.3-0.2 0.6-0.4 0.4-0.1 0.8-0.1 0.4 0.1 0.7 0.2c0.2 0.2 13.3 6.1 15.5 6.9l-1.3-5.2q-0.2-0.4-0.2-0.7 0-0.4 0.1-0.7 0.2-0.4 0.4-0.7 0.3-0.2 0.6-0.4 0.3-0.1 0.7-0.1 0.4-0.1 0.7 0.1 0.3 0.1 0.6 0.3 0.3 0.3 0.4 0.6l6.3 10.2c0.3 0.6-0.2 1.8-0.8 2.8-2.9 10.5-3.5 12.1-4.5 14.8l-10.9-4.3q-1.1-0.5-2.4-0.9-1.2-0.3-2.4-0.6-1.2-0.3-2.5-0.4-1.2-0.1-2.5-0.2h-0.8q-0.4 0-0.8-0.1-0.3-0.2-0.6-0.5-0.2-0.3-0.4-0.6-0.1-0.4 0-0.8z"/>
					<path id="Path_12741" class="s4" d="m537.8 271.7l17 22.5 51.4 3.4 1.4 19.2c0 0-62.2 6-68.3 1.8-6.1-4.1-22-27.8-22-27.8z"/>
					<path id="Path_12742" class="s5" d="m523.8 232.3c2.5 3.9 22.2 44.6 22.2 44.6-6.2 9.7-30.4 18.3-30.4 18.3l-2.8-6.6c0.3 4.6 0.4 69.5 0.4 69.5-47.2 16.7-95.2-1.3-95.2-1.3 0-28.9 13.9-95 13.9-95l-19.2 11.9c-7.8-1.2-26.6-19.9-26.6-19.9 0 0 44.3-37.8 49-39.3q4.8-1.5 9.8-2.4 5-0.8 10-1 5-0.2 10 0.3 5.1 0.5 10 1.7l35.2 8.7c3.6 0.8 10.2 5.2 13.7 10.5z"/>
					<path id="Path_12743" class="s4" d="m470.7 210.5l4.1-18.4 19.8 2.9-2.1 19.2c-0.8 7.4-6.7 12.8-13 11.8-6.4-1-10.5-8.1-8.8-15.5z"/>
					<path id="Path_12744" class="s6" d="m492.5 209.1c-4.8 8.1-20.2 5.1-20.5-3.6l1.6-7.8 19.9 3z"/>
					<path id="Path_12745" class="s4" d="m473.5 163.8q0.4-0.6 0.9-1.1 0.4-0.5 0.9-0.9 0.5-0.5 1.1-0.9 0.6-0.4 1.2-0.7 1.5-0.4 3-0.7 1.5-0.3 3-0.5 1.6-0.2 3.1-0.2 1.6-0.1 3.1 0h0.3 0.1l0.3 0.1q1.5 0.4 2.9 0.9 1.5 0.5 2.9 1.1 1.4 0.6 2.8 1.4 1.4 0.7 2.7 1.5 0.4 0.5 0.9 1 0.4 0.6 0.8 1.1 0.3 0.6 0.6 1.2 0.3 0.7 0.5 1.3-0.1 2.1-0.2 4.2-0.1 2.1-0.3 4.2-0.2 2.1-0.4 4.2-0.2 2.1-0.5 4.2-0.2 2.2-0.8 4.3-0.6 2.1-1.5 4.1-1 2-2.2 3.9-1.2 1.8-2.6 3.4c-3 3.3-7 5.9-11.9 5.7q-0.5-0.1-1.1-0.2h-0.1q-0.6-0.1-1.1-0.1c-4.8-1.2-7.8-5-9.7-8.9q-0.9-2-1.5-4.1-0.7-2.1-0.9-4.3-0.3-2.2-0.3-4.4 0.1-2.2 0.4-4.4 0.4-2 0.8-4.1 0.4-2.1 0.8-4.1 0.5-2.1 1-4.1 0.5-2.1 1-4.1z"/>
					<path id="Path_12746" class="s4" d="m474.2 184c-0.3 1.6-1.4 2.9-3 3.2-1.5 0.4-3.1-0.2-4.1-1.4-0.9-1.3-1-3-0.2-4.4 0.9-1.3 2.4-2.1 4-1.8q0.7 0.1 1.4 0.5 0.7 0.4 1.2 1 0.4 0.6 0.6 1.4 0.2 0.7 0.1 1.5z"/>
					<path id="Path_12747" class="s4" d="m506.3 188.7c-0.2 1.6-1.4 2.9-2.9 3.2-1.6 0.4-3.2-0.2-4.1-1.4-1-1.3-1.1-3-0.2-4.4 0.8-1.3 2.3-2.1 3.9-1.8q0.8 0.1 1.4 0.5 0.7 0.4 1.2 1 0.4 0.6 0.6 1.4 0.2 0.7 0.1 1.5z"/>
					<path id="Path_12748" class="s7" d="m500.6 194.1c0 0-4.2 14.5-16.4 12.5z"/>
					<path id="Path_12749" class="s4" d="m475.8 184l5.9 22.2c-12.3-1.6-12.1-17.1-12.1-17.1z"/>
					<path id="Path_12750" fill-rule="evenodd" class="s8" d="m476 156.1l14.4 0.7 0.1-0.1 0.2 0.1h0.3v0.1l14.1 3.5c0 0 3.8 0.6 2.7 7-0.7 4.5-3.9 20-5.8 29.2q-0.4 1.6-1.1 3.2-0.6 1.5-1.6 2.9-1 1.4-2.2 2.6-1.3 1.2-2.7 2.1l-0.3 0.1c-1.6 1.1-3.5 1.8-5.4 2.2-1.9 0.4-3.9 0.5-5.9 0.2-1.9-0.3-3.8-1-5.5-1.9-1.8-0.9-3.3-2.2-4.6-3.7l-0.2-0.2q-1.1-1.3-2-2.8-0.8-1.4-1.3-3.1-0.6-1.6-0.7-3.3-0.2-1.6-0.1-3.3c0.9-9.4 2.3-25.2 2.9-29.6 0.8-6.5 4.7-5.9 4.7-5.9zm-3.9 29.7q0.2 0.8 0.7 1.5 0.5 0.6 1.2 1 0.7 0.4 1.5 0.6l8.7 1.8 12 1.2q0.8 0.2 1.6 0 0.8-0.2 1.5-0.7 0.6-0.5 1.1-1.3 0.4-0.7 0.5-1.5l2.4-15.8c0 0-11.8 1-17.2-6.1l-2.3-4.7 0.2 5.1c0 0-0.4 6.4-10.9 6.3l-1.1 11.1q-0.1 0.8 0.1 1.5z"/>
					<path id="Path_12751" class="s8" d="m482.8 156.4c2.5-0.2 19.1-4.9 26.4-1.6 7.4 3.3-1.3 24.6-4 25.9-2.7 1.3 0.4-15.1 0.2-15.3-0.2-0.2-14.9-1.3-14.9-1.3z"/>
					<path id="Path_12752" class="s8" d="m475.9 166.5c-1.2 2.3-6.3 12.1-6.3 12.1 0 0 0.1-6.4-0.8-9-0.9-2.7 0.8-13.1 5.5-13.9 4.4-0.7 10.7 1.4 11.1 1.6 0 0-8.4 6.9-9.5 9.2z"/>
					<path id="Path_12753" class="s9" d="m484.6 196.5c-2.4-0.4-2.9-3.3-2.9-3.3 0 0 6.7 1.2 6.8 1.2 0 0-1.4 2.5-3.9 2.1z"/>
				</g>
			</g>
		</g>
		<path id="Path_12754" class="s7" d="m260.3 559.7l-25.5 0.4-0.4-24.1 25.4-3.1z"/>
		<g id="Group_2461">
			<g id="Clip-Path: Group_2460" clip-path="url(#cp5)">
				<g id="Group_2460">
					<path id="Path_12755" class="s1" d="m286.5 564.1h-52.1v-10.5c0 0 3.8-5 9.6-2.5 0 0 8.5 6.2 16.2-1.2l19.3 8.3c0 0 7 2.3 7 5.9z"/>
				</g>
			</g>
		</g>
		<path id="Path_12756" class="s7" d="m216.4 559.7l-25.5 0.4-0.4-24.1 25.4-3.1z"/>
		<g id="Group_2463">
			<g id="Clip-Path: Group_2462" clip-path="url(#cp6)">
				<g id="Group_2462">
					<path id="Path_12757" class="s2" d="m219.4 350.5q0.3-1.3 1-2.4 0.7-1.1 1.8-2 1-0.9 2.2-1.4l31.2-12.6c1.2-0.4 2.4-0.6 3.7-0.5 1.3 0.1 2.5 0.6 3.6 1.2 1.1 0.7 2 1.6 2.7 2.6 0.6 1.1 1.1 2.3 1.2 3.6l0.2 1q0 0.2 0 0.4 0 0.1 0 0.3 0.1 0.2 0.1 0.4 0 0.2 0 0.4l-3.2 202.9q0 1.4-0.4 2.7-0.4 1.3-1.2 2.4-0.8 1.1-1.9 1.9-1.1 0.8-2.4 1.3-2.3 0.7-4.5 1.2-2.3 0.6-4.6 0.9-2.3 0.4-4.6 0.6-2.4 0.2-4.7 0.2-1.6-0.1-3-0.6-1.5-0.6-2.6-1.7-1.2-1.1-1.9-2.5-0.6-1.4-0.8-2.9c-7.7-66.7-11.4-168.7-12.2-194.7q-0.1-1.4 0.3-2.7z"/>
					<path id="Path_12758" class="s1" d="m244.8 319.2l-9.1 49.9-14.8 179.8q-0.1 1.1-0.5 2.2-0.4 1-1.1 1.9-0.7 0.8-1.6 1.5-0.9 0.6-2 0.9-2.6 0.7-5.2 1.2-2.6 0.5-5.2 0.7-2.6 0.3-5.3 0.3-2.6 0-5.2-0.2-1.3-0.1-2.5-0.7-1.2-0.5-2.1-1.5-0.9-0.9-1.4-2.1-0.5-1.2-0.6-2.5c-5.5-77.3-3.4-202.7-3.4-202.7z"/>
				</g>
			</g>
		</g>
		<path id="Path_12759" class="s3" d=""/>
		<g id="Group_2465">
			<g id="Clip-Path: Group_2464" clip-path="url(#cp7)">
				<g id="Group_2464">
					<path id="Path_12760" class="s5" d="m263.6 300.8c0 0 6.7 40.1 4.6 44-2.1 3.9-78 10.7-85.6 7.9-7.6-2.8-7-41.6-7.3-44.2z"/>
					<path id="Path_12761" class="s5" d="m261.1 275.2c1.1 0 41.7 19.2 41.7 19.2l-8.8 15.6-23-5.9z"/>
					<path id="Path_12762" class="s5" d="m179.7 242.5c-0.7 1.9-11.5 7.3-11.5 7.3 0 0-3.1-40.7 9.6-47.3 8.6-4.5 26.1-3.3 26.1-3.3 0 0-23.5 41.4-24.2 43.3z"/>
					<path id="Path_12763" class="s5" d="m186.8 201.8c10-1 36.4-1.1 36.4-1.1 0 0 3.4 1 2.3 0.5 28.9 6.1 31.4 27.8 31.4 27.8l12 62.7 15.8 1.4c4.8 9.8 0.1 35.8 0.1 35.8l-76.7 6c0 0-16.6 2.2-30-16.2-8.8-12.2-10.7-48.7-9.8-75.3 0 0 2.9-40 18.5-41.6z"/>
					<path id="Path_12764" class="s7" d="m228.7 160.2l-0.1 22.2c0 0 0.2 7.2-6.5 8l1.2 9.5q0.1 1.4-0.2 2.7-0.4 1.2-1.1 2.3-0.8 1.1-1.9 1.9-1.1 0.8-2.4 1.1-0.7 0.2-1.5 0.4-0.8 0.1-1.6 0.3-0.8 0.1-1.6 0.1-0.8 0.1-1.6 0.1c-7.7-0.1-11.8-5.5-12.5-8.2-0.6-2.7 1.5-15.4 1.5-15.4l-0.2-6.3 1-24.4z"/>
					<path id="Path_12765" class="s10" d="m222.1 193.1l0.8 7.6c-16-1.4-16.4-14.2-16.4-14.2 5.1 8.6 15.6 6.6 15.6 6.6z"/>
					<path id="Path_12766" class="s8" d="m205.4 158.5c1.3 2.3 1.8 13.8 1.8 13.8l-1.2-1.3-6.9-1.5c0 0 5-13.3 6.3-11z"/>
					<path id="Path_12767" class="s7" d="m208.6 173.9c0 2.4-1.4 4.5-3.6 5.3-2.2 0.9-4.6 0.4-6.3-1.3-1.6-1.6-2.1-4.1-1.2-6.3 1-2.1 3.1-3.5 5.4-3.5q1.1 0 2.2 0.5 1.1 0.4 1.9 1.3 0.8 0.8 1.2 1.8 0.4 1.1 0.4 2.2z"/>
					<path id="Path_12768" class="s9" d="m217.4 183.9c0.1 0 6.3-0.1 6.3-0.1 0 0-0.8 2.6-3.1 2.7-2.3 0-3.2-2.5-3.2-2.6z"/>
					<path id="Path_12769" class="s8" d="m199.1 169.5c0 0-1.9-11.2 1.6-15.3 3.5-4.2 23.2-11.4 25.6-9.2 2.4 2.1 0 4.6 0 4.6 0 0 7.9-2.5 9.6 4.5 1.8 7.1-15.3 9.9-25.4 6.6q-1.8 0.6-3.4 1.5-1.6 0.8-3 2-1.5 1.1-2.8 2.5-1.2 1.3-2.2 2.8z"/>
					<path id="Path_12770" class="s11" d="m336.7 329.5l-45.2-3c-2.1-0.2-3.9-2.1-3.7-3.9l9-66.6q0.1-0.5 0.4-0.9 0.3-0.5 0.7-0.8 0.4-0.3 0.9-0.4 0.5-0.1 1 0l45.2 2.9c2.2 0.2 4 2.1 3.7 3.9l-9 66.6q-0.1 0.5-0.4 1-0.2 0.4-0.6 0.7-0.5 0.3-1 0.4-0.5 0.1-1 0.1z"/>
					<path id="Path_12771" class="s7" d="m314.6 316.4q-0.2 0.4-0.5 0.7-0.4 0.4-0.8 0.5-0.5 0.2-1 0.1h-1q-1.6-0.1-3.2-0.1-1.6 0-3.2 0.2-1.5 0.2-3.1 0.5-1.5 0.4-3.1 0.8l-14 4.3c-1-3.6-1.5-5.6-4.1-19.2-0.6-1.2-1.1-2.8-0.7-3.5 0 0 9.2-8.5 12.6-7.8 3.1 0.7 7.4 5.5 3.6 2l-5.1 2.4c2.8-0.8 19.6-6.7 19.9-6.8q0.4-0.2 0.9-0.2 0.5 0 0.9 0.2 0.4 0.2 0.7 0.5 0.4 0.4 0.5 0.8 0.2 0.4 0.2 0.9-0.1 0.5-0.3 0.9-0.1 0.4-0.5 0.7-0.3 0.3-0.7 0.5l-11.2 4.6q-0.1 0.1-0.1 0.1-0.1 0.1-0.2 0.2 0 0.1 0 0.2 0 0.1 0 0.2l0.2 0.6q0 0.1 0.1 0.2 0 0.1 0.1 0.1 0.1 0.1 0.2 0.1 0.2 0 0.3 0l12.5-3.4q0.5-0.1 0.9-0.1 0.5 0.1 0.9 0.4 0.4 0.2 0.7 0.6 0.3 0.4 0.4 0.8 0.1 0.5 0 0.9-0.1 0.5-0.4 0.9-0.2 0.4-0.6 0.6-0.3 0.3-0.8 0.4l-12.4 3.4q-0.1 0-0.2 0.1-0.1 0-0.2 0.1 0 0.1 0 0.2-0.1 0.2 0 0.3v0.2q0.1 0 0.1 0.1 0.1 0.1 0.1 0.2 0.1 0 0.2 0 0.1 0.1 0.2 0.1l11.6-0.8q0.5 0 1 0.1 0.5 0.2 0.9 0.5 0.4 0.3 0.7 0.7 0.2 0.4 0.4 0.8 0.1 0.5 0.1 0.9-0.1 0.4-0.4 0.8-0.2 0.4-0.6 0.6-0.4 0.2-0.9 0.2l-11.3 0.7q-0.3 0.1-0.4 0.2-0.2 0.2-0.2 0.4 0 0.2 0.2 0.4 0.1 0.2 0.4 0.2l7.7 0.5q0.4 0 0.8 0.2 0.4 0.2 0.8 0.5 0.3 0.4 0.4 0.8 0.2 0.4 0.2 0.9 0 0.5-0.2 0.9z"/>
					<path id="Path_12772" class="s0" d="m325.1 279.7q0 0.9-0.4 1.7-0.3 0.8-0.9 1.4-0.6 0.7-1.4 1-0.8 0.4-1.7 0.5-0.8 0-1.6-0.3-0.8-0.3-1.4-0.9-0.6-0.7-1-1.5-0.3-0.8-0.2-1.6 0-0.9 0.3-1.7 0.3-0.8 0.9-1.5 0.6-0.6 1.4-1 0.8-0.4 1.7-0.4 0.8 0 1.6 0.3 0.8 0.3 1.4 0.9 0.6 0.6 1 1.4 0.3 0.8 0.3 1.7z"/>
				</g>
			</g>
		</g>
		<path id="Path_12773" class="s7" d="m297.2 291.6l0.1 3.6-5.3 1.7 0.7-4.9z"/>
		<g id="Group_2467">
			<g id="Clip-Path: Group_2466" clip-path="url(#cp8)">
				<g id="Group_2466">
					<path id="Path_12774" class="s5" d="m284.7 293.1c0 0 4.6 12.1 0.1 35.8l-4.5-17.1-7.5-11.1z"/>
					<path id="Path_12775" class="s5" d="m191.2 219.6l9.3-15.7 16.4 5 6.7-7.1c0 0 1.4 6.5 1.4 7.1-0.1 0.5-7.5 8.3-8.5 8.2-0.9-0.1-25.3 2.5-25.3 2.5z"/>
					<path id="Path_12776" class="s1" d="m242.6 564.1h-52.1v-10.5c0 0 3.8-5 9.5-2.5 0 0 8.6 6.2 16.3-1.2l19.2 8.3c0 0 7.1 2.3 7.1 5.9z"/>
				</g>
			</g>
		</g>
		<path id="Path_12777" class="s12" d="m256.6 291.7l-47.8-1.6-9-55.8z"/>
		<path id="Path_12778" class="s7" d="m643.3 540.2l23.3 2.7-0.3 20.2-23.4-0.2z"/>
		<g id="Group_2469">
			<g id="Clip-Path: Group_2468" clip-path="url(#cp9)">
				<g id="Group_2468">
					<path id="Path_12779" class="s13" d="m625.3 561.6l17.7-7c7 6.2 14.1 1.3 14.9 1q1.1-0.5 2.3-0.5 1.2-0.1 2.4 0.1 1.1 0.3 2.2 0.9 1 0.7 1.8 1.6v8.8h-47.7c0-3 6.4-4.9 6.4-4.9z"/>
				</g>
			</g>
		</g>
		<path id="Path_12780" class="s7" d="m590.5 540.2l23.2 2.7-0.3 20.2-23.3-0.2z"/>
		<g id="Group_2471">
			<g id="Clip-Path: Group_2470" clip-path="url(#cp10)">
				<g id="Group_2470">
					<path id="Path_12781" class="s13" d="m572.5 561.6l17.6-7c7.1 6.2 14.2 1.3 14.9 1q1.1-0.5 2.3-0.5 1.2-0.1 2.4 0.1 1.2 0.3 2.2 0.9 1.1 0.7 1.8 1.6v8.8h-47.6c0-3 6.4-4.9 6.4-4.9z"/>
					<path id="Path_12782" class="s14" d="m585 380.9c0 0-0.4 2.7-4.2-1.8-2.1-2.5-4.4-10.5-4.3-12.8 0.1-2.3 0.9-17.8 0.9-17.8l20.5-0.9-2.3 13.5c0 0 5 3.5 6.5 5.8 1.8 2.7-0.2 2.6-1.3 1.9-2.2-1.2-6.6-2.2-7 0.2 1.5 3.6 3.5 9.3 4.2 11.2q0.1 0.2 0.1 0.4 0 0.3 0 0.5-0.1 0.2-0.1 0.4-0.1 0.2-0.3 0.4c-0.5 0.7-1.6 1.1-3.8-1 0 0-0.9 4.2-4.5 0 0 0 0 4.4-4.4 0z"/>
					<path id="Path_12783" class="s14" d="m590.9 375.8q0 0 0 0 0-0.1 0-0.1 0.1-0.1 0.1-0.1 0 0 0.1 0 0 0 0.1 0 0.1 0 0.1 0 0.1 0 0.1 0.1 0.1 0 0.1 0 0.3 0.7 0.6 1.3 0.3 0.7 0.6 1.3 0.4 0.7 0.7 1.3 0.4 0.6 0.8 1.2 0 0 0 0.1 0 0 0 0.1 0 0.1 0 0.1-0.1 0-0.1 0.1-0.1 0-0.1 0-0.1 0-0.2 0 0 0-0.1 0 0-0.1 0-0.1-0.4-0.6-0.8-1.3-0.4-0.6-0.7-1.2-0.4-0.7-0.7-1.3-0.3-0.7-0.6-1.4 0 0 0 0 0 0 0 0 0 0 0 0 0 0 0-0.1z"/>
					<path id="Path_12784" class="s14" d="m587 375.9q0 0 0-0.1 0 0 0.1-0.1 0 0 0.1 0 0-0.1 0-0.1 0.1 0 0.2 0 0 0 0.1 0.1 0 0 0.1 0 0 0.1 0 0.1 0.2 0.7 0.4 1.3 0.2 0.7 0.4 1.3 0.3 0.6 0.6 1.2 0.3 0.6 0.7 1.1 0 0.1 0 0.1 0 0.1 0 0.1 0 0.1 0 0.1-0.1 0.1-0.1 0.1-0.1 0-0.1 0-0.1 0.1-0.1 0-0.1 0-0.2 0 0 0 0-0.1-0.4-0.6-0.7-1.2-0.4-0.6-0.6-1.2-0.3-0.7-0.5-1.3-0.2-0.7-0.4-1.3 0-0.1 0-0.1 0 0 0 0 0 0 0 0 0 0 0 0z"/>
					<path id="Path_12785" class="s14" d="m582.6 376.6q0 0 0-0.1 0 0 0.1-0.1 0 0 0 0 0.1-0.1 0.1-0.1 0.1 0 0.1 0 0.1 0 0.2 0.1 0 0 0 0 0.1 0.1 0.1 0.1 0.2 0.6 0.4 1.2 0.2 0.5 0.4 1 0.3 0.6 0.6 1.1 0.3 0.5 0.6 1 0.1 0 0.1 0.1 0 0 0 0.1 0 0.1-0.1 0.1 0 0.1-0.1 0.1 0 0-0.1 0 0 0-0.1 0 0 0-0.1 0 0 0-0.1-0.1-0.3-0.5-0.6-1-0.4-0.6-0.6-1.1-0.3-0.6-0.5-1.2-0.2-0.5-0.4-1.1 0 0 0-0.1 0 0 0 0 0 0 0 0 0 0 0 0z"/>
					<path id="Path_12786" class="s13" d="m631.3 335.7c0 0-3.1 140.8-13.7 222.1 0 0-14.2 4.3-32.1-3.8l-0.8-207.5-2.5-31.1z"/>
					<path id="Path_12787" class="s15" d="m668.8 337c0 0 6.3 138.9-0.7 220.7 0 0-13.3 8-31.5 1.1l-22-199.5-9.3-53.4z"/>
					<path id="Path_12788" class="s16" d="m591.4 353.4h-17.1c-3.5-10.1 1.5-112.5 3.5-121 1.9-8.4 13.6-12.8 13.6-12.8z"/>
					<path id="Path_12789" class="s17" d="m674.8 279.5l1 65.6c0 0-55.3 14.4-91.1-2.8 0 0 6.3-115.3 7.4-120.4 1.3-6 37-6.4 51.9-5 0 0 23-0.5 35.4 5.8z"/>
					<path id="Path_12790" class="s17" d="m675.8 256.4v92.4c0 0-42.6 4.6-63.3 0 0 0 0.1-128.7 8.6-132.6 1 0 22.2 0.3 37.4 1.3 15.2 1.1 17.3 38.9 17.3 38.9z"/>
					<path id="Path_12791" class="s17" d="m611.9 216.2c0 0-2.7 115.2-5.4 132.3q-3.2 0.1-6.4-0.2-3.2-0.2-6.3-0.6-3.2-0.5-6.2-1.2-3.1-0.8-6.2-1.7c-2-0.7 2.6-120.2 6.2-123.4 3.6-3.2 24.3-5.2 24.3-5.2z"/>
					<path id="Path_12792" class="s14" d="m647.6 373.8c-5.7 0.7-3.2-2.8-3.2-2.8-3.1 0-3.6-1-3.5-1.8q0.1-0.2 0.2-0.4 0.1-0.3 0.2-0.4 0.2-0.2 0.4-0.4 0.1-0.1 0.4-0.2c1.9-0.9 7.7-3.7 11.4-5.3 1.6-1.9-2.3-4.1-4.8-4.6-1.3-0.3-2.8-1.4 0.6-2.3 2.7-0.6 9.1 0.1 9.1 0.1l8.6-11.1 13.9 13.8c0 0-11.2 11.6-12.9 13.4-1.7 1.7-9.5 5.9-12.9 6.3-6.1 0.8-4.3-1.4-4.3-1.4-6.5 0.3-3.2-2.9-3.2-2.9z"/>
					<path id="Path_12793" class="s18" d="m650.4 369.3q0 0 0 0 0 0 0 0 0 0 0 0-0.7 0.3-1.5 0.6-0.7 0.3-1.4 0.5-0.8 0.2-1.5 0.4-0.8 0.2-1.5 0.4-0.1 0-0.1 0-0.1 0-0.1 0-0.1 0-0.1-0.1-0.1 0-0.1-0.1 0 0 0-0.1 0 0 0-0.1 0.1 0 0.1-0.1 0.1 0 0.1 0 0.8-0.2 1.5-0.4 0.7-0.2 1.4-0.4 0.8-0.3 1.5-0.5 0.7-0.3 1.4-0.6 0.1 0 0.1 0 0.1 0 0.1 0 0.1 0 0.1 0.1 0.1 0 0.1 0.1 0 0 0 0 0 0.1 0 0.1 0 0.1 0 0.1 0 0.1-0.1 0.1 0 0 0 0z"/>
					<path id="Path_12794" class="s18" d="m653.1 371.8q0 0 0 0 0 0 0 0 0 0 0 0.1-0.6 0.3-1.3 0.7-0.6 0.3-1.3 0.6-0.7 0.2-1.4 0.5-0.7 0.2-1.4 0.4 0 0-0.1 0-0.1 0-0.1-0.1-0.1 0-0.1 0 0-0.1-0.1-0.1 0-0.1 0-0.1 0.1-0.1 0.1-0.1 0-0.1 0.1-0.1 0-0.1 0.1-0.1 0.7-0.1 1.3-0.4 0.7-0.2 1.3-0.5 0.7-0.2 1.3-0.5 0.7-0.4 1.3-0.7 0 0 0.1-0.1 0 0 0.1 0 0.1 0.1 0.1 0.1 0.1 0 0.1 0.1 0 0 0 0.1 0 0 0 0.1 0 0 0 0 0 0.1 0 0.1-0.1 0-0.1 0z"/>
					<path id="Path_12795" class="s18" d="m655.8 375.2q-0.1 0-0.1 0 0 0 0 0 0 0 0 0-0.6 0.3-1.2 0.6-0.5 0.3-1.2 0.5-0.6 0.2-1.2 0.4-0.6 0.2-1.3 0.3 0 0-0.1 0 0 0-0.1 0-0.1-0.1-0.1-0.1 0-0.1 0-0.1 0-0.1 0-0.1 0-0.1 0-0.1 0-0.1 0.1-0.1 0 0 0.1-0.1 0.6-0.1 1.2-0.3 0.6-0.1 1.2-0.3 0.6-0.3 1.2-0.5 0.5-0.3 1.1-0.6 0 0 0.1 0 0.1 0 0.1 0 0.1 0 0.1 0 0.1 0.1 0.1 0.1 0 0.1 0.1 0.1 0 0 0 0.1 0 0-0.1 0.1 0 0 0 0.1 0 0 0 0z"/>
					<path id="Path_12796" class="s17" d="m654.8 217.2c0 0 24-2 36 16.3 11 16.7 31.9 40.1 34.5 63.2 2.1 18.6-36 55.8-45.9 64.7l-17.6-17.2c0 0 28-40.9 30.2-46 2-4.5-39-54.3-39-54.3z"/>
					<path id="Path_12797" class="s8" d="m632.2 201.7c0 0-0.5 13.5-19.7 14.8l1.1-7.9c0 0 12.5 2.2 18.6-6.9z"/>
					<path id="Path_12798" class="s14" d="m638.8 168.2l1.1 25.5-0.3 6.6c0 0 2.3 13.4 1.5 16.2-0.7 2.8-5.7 8.4-14.9 8.4q-0.9 0-1.9 0-0.9-0.1-1.9-0.2-0.9-0.1-1.9-0.3-0.9-0.2-1.8-0.4c-4.4-1.2-7.1-4.7-6.6-8.4l1.5-10q-1.6-0.1-3-0.8-1.4-0.7-2.5-1.8-1.1-1.2-1.6-2.7-0.6-1.5-0.5-3.1v-22.1z"/>
					<path id="Path_12799" class="s8" d="m637.8 169.5l-6.4 8c0 0-19.4 6.6-29.3-1.2-10-7.9-6.9-11.6-4-15.6 1.4-1.9 8.3-5.8 16.7-2.6 4.6 1.8 8-3.5 13.3-0.8 5.4 2.7 11.7 7.3 11 9.2-0.7 1.8-1.3 3-1.3 3z"/>
					<path id="Path_12800" class="s8" d="m637.4 166.2c0 0 8.8-0.4 11.3 7.1 2.4 7.4-0.9 11.4-1 13.6 0 2.2 1.7 17.2-10.3 16.1l-3.2-24.8 4.1-9.9z"/>
					<path id="Path_12801" class="s14" d="m636.7 182.5c3.8 0 6.9 2.7 6.9 6.1 0 3.3-3.1 6-6.9 6-3.8 0-6.8-2.7-6.8-6 0-3.4 3-6.1 6.8-6.1z"/>
					<path id="Path_12802" class="s8" d="m629.7 196.1c1-0.4 1.9-10 2.3-13.5q0.1-0.6 0.2-1.2 0.2-0.6 0.5-1.2 0.3-0.6 0.6-1.1 0.4-0.5 0.9-0.9l0.5 4.3-0.2 14.8c-1 7.2-2.7 16-20.1 15.1-12.2-0.5-9.7-16.7-9.7-16.7 2.7-1.6 23.6 1 25 0.4z"/>
					<path id="Path_12803" class="s9" d="m618.7 200q-0.4 0.5-0.9 0.9-0.5 0.3-1.1 0.5-0.6 0.2-1.2 0.2-0.7-0.1-1.2-0.3-0.6-0.2-1.1-0.6-0.5-0.3-0.9-0.8-0.3-0.5-0.5-1.1c0 0 7.4 0.2 7.5 0.2q-0.2 0.6-0.6 1z"/>
				</g>
			</g>
		</g>
		<g id="Group_2473">
			<g id="Clip-Path: Group_2472" clip-path="url(#cp11)">
				<g id="Group_2472">
					<path id="Path_12804" fill-rule="evenodd" class="s0" d="m504.3 257.6q0.4 0.2 0.7 0.5 0.4 0.3 0.5 0.7 0.2 0.4 0.2 0.9c0 0.9-0.5 1.7-1.4 2-0.8 0.4-1.8 0.2-2.4-0.5-0.7-0.6-0.9-1.6-0.5-2.4 0.3-0.8 1.2-1.4 2.1-1.4q0.4 0 0.8 0.2zm-0.4 3.2q0.3-0.1 0.4-0.3 0.2-0.1 0.3-0.4 0.1-0.2 0.1-0.4c0-0.5-0.3-1-0.8-1.2-0.4-0.2-1 0-1.3 0.3-0.4 0.3-0.5 0.9-0.3 1.3 0.2 0.5 0.7 0.8 1.2 0.8q0.2 0 0.4-0.1z"/>
					<path id="Path_12805" fill-rule="evenodd" class="s0" d="m495.2 257.6q0.4 0.2 0.7 0.5 0.3 0.3 0.5 0.7 0.2 0.4 0.2 0.9c0 0.9-0.6 1.7-1.4 2-0.8 0.4-1.8 0.2-2.4-0.5-0.7-0.6-0.9-1.6-0.5-2.4 0.3-0.8 1.1-1.4 2-1.4q0.5 0 0.9 0.2zm-0.4 3.2q0.2-0.1 0.4-0.3 0.2-0.1 0.3-0.4 0.1-0.2 0.1-0.4c0-0.5-0.3-1-0.8-1.2-0.4-0.2-1 0-1.3 0.3-0.4 0.4-0.5 0.9-0.3 1.3 0.2 0.5 0.7 0.8 1.1 0.8q0.3 0 0.5-0.1z"/>
					<path id="Path_12806" class="s0" d="m498.8 260.8v1.1h-0.2q-0.1 0-0.3 0-0.1-0.1-0.2-0.1-0.1-0.1-0.2-0.1-0.2-0.1-0.3-0.2 0 0 0 0-0.1-0.1-0.1-0.1 0 0-0.1-0.1 0 0 0-0.1-0.1-0.1-0.1-0.2 0 0-0.1-0.1 0-0.1 0-0.2 0-0.1 0-0.2v-1.9h-0.5v-1.1h0.5v-0.8h1v0.8h0.5v1.1h-0.5v1.9q0 0 0 0 0 0 0 0.1 0 0 0 0 0 0 0.1 0.1 0 0 0 0 0 0 0 0 0 0 0 0 0 0 0 0 0.1 0.1 0.1 0.1 0 0 0.1 0 0 0 0 0 0.1 0 0.1 0z"/>
					<path id="Path_12807" class="s0" d="m501.1 260.8v1.1h-0.2q-0.1 0-0.3 0-0.1-0.1-0.2-0.1-0.1-0.1-0.2-0.1-0.2-0.1-0.3-0.2 0 0 0 0-0.1-0.1-0.1-0.1 0 0-0.1-0.1 0 0 0-0.1-0.1-0.1-0.1-0.2 0 0-0.1-0.1 0-0.1 0-0.2 0-0.1 0-0.2v-1.9h-0.5v-1.1h0.5v-0.8h1v0.8h0.5v1.1h-0.5v1.9q0 0 0 0 0 0 0 0.1 0 0 0 0 0 0 0.1 0.1 0 0 0 0 0 0 0 0 0 0 0 0 0 0 0 0 0.1 0.1 0.1 0.1 0 0 0.1 0 0 0 0 0 0.1 0 0.1 0z"/>
					<path id="Path_12808" class="s19" d="m507.7 255.8q0.3 0.2 0.6 0.5 0.3 0.2 0.6 0.6 0.2 0.3 0.3 0.7 0.1 0.4 0 0.8 0 0.3-0.1 0.6-0.1 0.3-0.3 0.6-0.2 0.3-0.5 0.5-0.3 0.1-0.7 0.2-0.1 0-0.3 0.1-0.2 0-0.4 0-0.2 0-0.4 0-0.1 0-0.3 0 0-0.1 0-0.3 0.1-0.1 0.1-0.2 0-0.2 0-0.3 0-0.1-0.1-0.3 0.2 0 0.3 0 0.2 0 0.3 0 0.1 0 0.3 0 0.1 0 0.3 0 0.1-0.1 0.3-0.2 0.1-0.1 0.2-0.2 0.1-0.1 0.2-0.3 0-0.1 0-0.3 0-0.2 0-0.4-0.1-0.3-0.2-0.5-0.1-0.1-0.3-0.3-0.1-0.1-0.3-0.2-0.1-0.1-0.3-0.1-0.1 0-0.2-0.1-0.1 0-0.2 0-0.2 0-0.3 0l-0.2-0.1q-0.2 0-0.4 0-0.1 0-0.3 0-0.2-0.1-0.4-0.1-0.1 0-0.3-0.1-0.2-0.1-0.5-0.2-0.2-0.1-0.4-0.3-0.2-0.2-0.4-0.3-0.2-0.2-0.3-0.4-0.2-0.2-0.3-0.4-0.3-0.2-0.7-0.5-0.3-0.2-0.7-0.5-0.3-0.2-0.7-0.3-0.4-0.2-0.8-0.3-0.7-0.2-1.4-0.2-0.8-0.1-1.5 0-0.7 0.1-1.4 0.2-0.7 0.2-1.3 0.5-0.4 0.2-0.7 0.4-0.4 0.1-0.7 0.3-0.3 0.2-0.6 0.4-0.4 0.2-0.7 0.4-0.5 0.4-1 0.8l-0.2 0.1q0 0.1-0.1 0.1 0 0-0.1 0.1 0 0-0.1 0 0 0.1-0.1 0.1 0 0-0.1 0-0.1 0.1-0.1 0.1-0.1 0-0.1 0.1-0.1 0-0.1 0.1c-0.1 0.2-0.1 0.4 0 0.8q0 0.2 0 0.4 0 0.2 0.1 0.3 0 0.2 0.1 0.3 0.1 0.2 0.2 0.3 0.2 0.1 0.4 0.1 0.2 0.1 0.5 0.1 0.2 0.1 0.4 0.1 0.2 0 0.4 0 0 0.2 0 0.3-0.1 0.1-0.1 0.3 0 0.1 0.1 0.3 0 0.1 0 0.2-0.3 0-0.6 0-0.3-0.1-0.6-0.1-0.3-0.1-0.6-0.2-0.3-0.1-0.6-0.2-0.2-0.2-0.3-0.4-0.2-0.3-0.3-0.5-0.1-0.3-0.2-0.6 0-0.2 0-0.5-0.1-0.2-0.1-0.4 0-0.2 0-0.4 0.1-0.3 0.1-0.5 0.1-0.2 0.2-0.3 0.1-0.1 0.2-0.2 0-0.1 0.1-0.2 0.1-0.1 0.2-0.2 0.2 0 0.3-0.1 0 0 0 0 0.1 0 0.1-0.1 0.1 0 0.1 0 0 0 0.1-0.1l0.1-0.1q0.5-0.4 1.1-0.8 0.3-0.2 0.7-0.4 0.3-0.2 0.7-0.4 0.3-0.2 0.7-0.4 0.4-0.2 0.7-0.4 0.8-0.3 1.6-0.5 0.8-0.3 1.6-0.3 0.8-0.1 1.6 0 0.8 0.1 1.6 0.3 0.5 0.1 1 0.3 0.4 0.2 0.8 0.4 0.5 0.3 0.9 0.6 0.3 0.3 0.7 0.6 0.1 0.2 0.3 0.3 0.1 0.2 0.2 0.3 0.2 0.2 0.3 0.3 0.1 0.1 0.3 0.2 0.2 0.1 0.3 0.2 0.2 0 0.3 0 0.2 0.1 0.3 0.1 0.2 0 0.3 0 0.2 0 0.3 0.1h0.3q0.1 0 0.3 0 0.1 0 0.3 0.1 0.1 0 0.3 0 0.1 0.1 0.3 0.1z"/>
				</g>
			</g>
		</g>
		<path id="Path_12809" fill-rule="evenodd" class="s0" d="m501.2 256.7v0.1h-0.1v0.4h-0.1v-0.4h-0.2v-0.1zm-0.4 0h0.2v0.5h0.1v-0.5h0.1-0.4zm0.4-0.1v0.1h-0.2v0.4-0.4h-0.2v-0.1zm0.7 0v0.5h-0.1v-0.4l-0.2 0.4-0.2-0.4v0.4-0.5h0.1l0.1 0.4 0.2-0.4z"/>
		<path id="Path_12810" class="s0" d="m500.8 256.7h0.4-0.2v0.5-0.5h-0.2z"/>
		<g id="Group_2475">
			<g id="Clip-Path: Group_2474" clip-path="url(#cp12)">
				<g id="Group_2474">
					<path id="Path_12811" fill-rule="evenodd" class="s0" d="m242.1 235.5q0.4 0.1 0.8 0.4 0.3 0.3 0.5 0.7 0.2 0.3 0.3 0.8c0.1 0.9-0.4 1.8-1.2 2.2-0.8 0.4-1.8 0.3-2.5-0.2-0.7-0.6-1-1.5-0.7-2.4 0.3-0.9 1-1.5 1.9-1.6q0.5 0 0.9 0.1zm-0.1 3.2q0.2-0.1 0.4-0.3 0.2-0.2 0.2-0.4 0.1-0.3 0.1-0.5c-0.1-0.5-0.4-0.9-0.9-1-0.5-0.2-1 0-1.3 0.4-0.3 0.3-0.4 0.9-0.1 1.3 0.2 0.4 0.7 0.7 1.2 0.6q0.2 0 0.4-0.1z"/>
					<path id="Path_12812" fill-rule="evenodd" class="s0" d="m233 236.4q0.5 0.2 0.8 0.4 0.3 0.3 0.6 0.7 0.2 0.4 0.2 0.8c0.1 0.9-0.3 1.8-1.1 2.2-0.8 0.5-1.8 0.4-2.5-0.2-0.7-0.6-1-1.5-0.8-2.4 0.3-0.8 1.1-1.5 2-1.6q0.4 0 0.8 0.1zm0 3.2q0.2-0.1 0.3-0.3 0.2-0.1 0.3-0.4 0-0.2 0-0.5c-0.1-0.4-0.4-0.9-0.9-1-0.4-0.1-1 0-1.3 0.4-0.3 0.4-0.3 0.9-0.1 1.4 0.3 0.4 0.7 0.6 1.2 0.6q0.3 0 0.5-0.2z"/>
					<path id="Path_12813" class="s0" d="m237 239.3l0.1 1h-0.2-0.1q-0.1 0-0.2 0-0.1 0-0.3 0-0.1 0-0.2-0.1-0.1 0-0.2-0.1-0.1 0-0.1-0.1-0.1 0-0.1 0 0-0.1-0.1-0.1 0 0 0-0.1-0.1-0.1-0.1-0.2-0.1 0-0.1-0.1-0.1-0.1-0.1-0.2 0-0.1 0-0.2l-0.2-1.9h-0.4l-0.2-1h0.5l-0.1-0.9 1-0.1 0.1 0.8h0.5l0.1 1-0.5 0.1 0.2 1.9q0 0 0 0 0 0 0 0.1 0 0 0.1 0 0 0 0 0.1 0 0 0 0 0 0 0 0 0 0 0 0 0.1 0 0.1 0 0 0.1 0 0.1 0.1 0 0.1 0 0 0 0.1 0 0 0 0.1 0z"/>
					<path id="Path_12814" class="s0" d="m239.2 239l0.2 1.1h-0.2-0.1q-0.1 0-0.2 0-0.2 0-0.3 0-0.1-0.1-0.2-0.1-0.1-0.1-0.2-0.2-0.1 0-0.1 0-0.1 0-0.1-0.1 0 0-0.1 0 0-0.1 0-0.1-0.1-0.1-0.1-0.2-0.1-0.1-0.1-0.2-0.1-0.1-0.1-0.2 0-0.1 0-0.2l-0.2-1.9-0.5 0.1-0.1-1 0.5-0.1-0.1-0.8 1-0.1 0.1 0.8h0.5l0.1 1h-0.5l0.2 1.9q0 0 0 0.1 0 0 0 0 0 0.1 0 0.1 0.1 0 0.1 0 0 0 0 0.1 0 0 0 0 0 0 0 0 0 0 0.1 0 0 0 0 0 0.1 0.1 0.1 0.1 0 0 0.1 0 0 0 0.1 0z"/>
					<path id="Path_12815" class="s19" d="m245.2 233.4q0.4 0.1 0.8 0.3 0.3 0.3 0.5 0.6 0.3 0.3 0.4 0.7 0.1 0.3 0.2 0.7 0 0.4-0.1 0.7-0.1 0.3-0.3 0.6-0.2 0.3-0.4 0.5-0.3 0.2-0.6 0.3-0.2 0.1-0.4 0.1-0.2 0.1-0.3 0.1-0.2 0-0.4 0-0.2 0.1-0.4 0.1 0-0.1 0.1-0.2 0-0.1 0-0.2 0 0 0-0.1 0-0.1 0-0.2-0.1-0.1-0.1-0.1 0-0.1 0-0.1 0-0.1 0-0.1 0-0.1 0-0.1 0.1 0 0.3 0 0.1-0.1 0.2-0.1 0.2 0 0.3 0 0.2-0.1 0.3-0.1 0.1 0 0.3-0.1 0.1-0.1 0.2-0.3 0.1-0.1 0.1-0.3 0.1-0.2 0.1-0.3-0.1-0.2-0.1-0.5-0.1-0.2-0.2-0.3-0.2-0.2-0.4-0.4-0.1-0.1-0.4-0.2-0.1 0-0.2 0-0.1 0-0.2 0-0.1 0-0.3-0.1-0.1 0-0.2 0h-0.2q-0.2 0.1-0.4 0.1-0.2-0.1-0.4-0.1-0.1 0-0.3 0-0.2 0-0.4-0.1-0.2 0-0.5-0.1-0.2-0.1-0.4-0.3-0.2-0.1-0.4-0.3-0.2-0.1-0.4-0.3-0.2-0.2-0.3-0.3-0.4-0.3-0.7-0.5-0.4-0.2-0.8-0.3-0.4-0.2-0.8-0.3-0.4-0.1-0.8-0.2-0.7-0.1-1.4-0.1-0.7 0-1.4 0.2-0.8 0.1-1.4 0.4-0.7 0.2-1.3 0.6-0.3 0.2-0.7 0.4-0.3 0.2-0.6 0.4-0.3 0.2-0.6 0.5-0.3 0.2-0.6 0.4-0.5 0.5-0.9 0.9l-0.2 0.2q0 0-0.1 0 0 0.1-0.1 0.1 0 0.1-0.1 0.1 0 0-0.1 0.1 0 0-0.1 0 0 0.1-0.1 0.1 0 0.1-0.1 0.1 0 0.1-0.1 0.1c-0.1 0.2 0 0.4 0.1 0.9q0 0.1 0.1 0.3 0 0.2 0.1 0.3 0.1 0.2 0.2 0.3 0.1 0.2 0.2 0.3 0.2 0 0.4 0.1 0.2 0 0.4 0 0.3 0 0.5 0 0.2 0 0.4 0 0 0.1 0 0.2 0 0 0 0.1 0 0.1 0 0.2 0 0 0 0.1 0 0.1 0 0.1 0 0.1 0 0.2 0.1 0 0.1 0.1 0 0.1 0 0.1-0.3 0-0.6 0-0.3 0-0.6 0-0.3-0.1-0.6-0.1-0.3-0.1-0.6-0.2-0.2-0.2-0.4-0.4-0.2-0.2-0.3-0.4-0.2-0.3-0.3-0.5 0-0.3-0.1-0.6 0-0.2-0.1-0.4 0-0.2 0-0.4 0-0.2 0-0.4 0.1-0.2 0.2-0.4 0-0.1 0.1-0.2 0.1-0.1 0.2-0.2 0.1-0.1 0.2-0.2 0.1-0.1 0.2-0.1 0-0.1 0.1-0.1 0 0 0 0 0.1-0.1 0.1-0.1 0 0 0.1 0l0.1-0.2q0.5-0.4 1-0.9 0.3-0.3 0.6-0.5 0.4-0.3 0.7-0.5 0.3-0.2 0.7-0.4 0.3-0.3 0.7-0.5 0.7-0.4 1.4-0.7 0.8-0.3 1.6-0.4 0.8-0.2 1.6-0.2 0.8 0 1.6 0.1 0.5 0.1 1 0.2 0.5 0.2 0.9 0.4 0.5 0.2 0.9 0.4 0.4 0.3 0.8 0.6 0.2 0.1 0.3 0.3 0.1 0.1 0.3 0.2 0.1 0.2 0.3 0.3 0.1 0.1 0.3 0.1 0.2 0.1 0.4 0.2 0.1 0 0.3 0 0.1 0 0.3 0 0.1 0 0.3 0 0.1 0 0.3 0h0.2q0.2 0 0.3 0 0.2 0.1 0.3 0.1 0.2 0 0.3 0 0.2 0 0.3 0.1"/>
				</g>
			</g>
		</g>
		<path id="Path_12816" fill-rule="evenodd" class="s0" d="m238.9 234.9v0.1h-0.1v0.4h-0.1v-0.4h-0.2v-0.1zm-0.4 0.1h0.2v0.4h0.1v-0.4h0.1v-0.1l-0.4 0.1zm0.4-0.1h-0.2l0.1 0.5h-0.1v-0.4h-0.2v-0.1zm0.7-0.1v0.5h-0.1v-0.3l-0.1 0.4h-0.1l-0.2-0.4 0.1 0.4h-0.1l-0.1-0.5h0.2l0.1 0.3 0.2-0.4z"/>
		<path id="Path_12817" class="s0" d="m238.9 234.9v0.1h-0.1v0.4h-0.1v-0.4h-0.2v-0.1z"/>
	</g>
</svg>