<svg xmlns="http://www.w3.org/2000/svg" width="116.745" height="56.454" viewBox="0 0 116.745 56.454">
  <g id="Group_2506" data-name="Group 2506" transform="translate(-607.465 -367.751)">
    <path id="Path_12698" data-name="Path 12698" d="M771.337,453.158a6.838,6.838,0,1,1,6.839-6.84,6.843,6.843,0,0,1-6.839,6.84m0-19.4A12.564,12.564,0,1,0,783.9,446.323a12.576,12.576,0,0,0-12.568-12.564" transform="translate(-79.498 -34.681)" fill="#fff"/>
    <path id="Path_12699" data-name="Path 12699" d="M663.667,453.158a6.838,6.838,0,1,1,6.836-6.84,6.84,6.84,0,0,1-6.836,6.84m0-19.4a12.564,12.564,0,1,0,12.564,12.564,12.574,12.574,0,0,0-12.564-12.564" transform="translate(-22.928 -34.681)" fill="#fff"/>
    <path id="Path_12700" data-name="Path 12700" d="M717.518,448.285v5.81l-.978.048c-.085,0-.175,0-.26,0a8,8,0,0,1-5.324-1.932,7.7,7.7,0,0,1-1.431-1.657,8.074,8.074,0,0,1-1.238-4.353V435.593h-2.381v-5.8h2.381v-4.73h5.8v4.73h2.854v5.8h-2.854v10.613a2.246,2.246,0,0,0,.322,1.221,2,2,0,0,0,.367.429,2.286,2.286,0,0,0,1.657.494Z" transform="translate(-51.722 -30.114)" fill="#fff"/>
    <path id="Path_12701" data-name="Path 12701" d="M744.694,448.285v5.81l-.978.048c-.085,0-.174,0-.26,0a8,8,0,0,1-5.324-1.932,7.688,7.688,0,0,1-1.43-1.661,8.048,8.048,0,0,1-1.239-4.349V435.593h-2.38v-5.8h2.38v-4.73h5.8v4.73h2.855v5.8H741.26v10.613a2.241,2.241,0,0,0,.323,1.221,1.975,1.975,0,0,0,.367.429,2.285,2.285,0,0,0,1.657.494Z" transform="translate(-66.001 -30.114)" fill="#fff"/>
    <path id="Path_12702" data-name="Path 12702" d="M715.45,390.233a14.3,14.3,0,0,1,8.736,14.113,11.735,11.735,0,0,1-8.887,11,68,68,0,0,1-8.263.532,13.534,13.534,0,0,0,.369-6.16,60.7,60.7,0,0,0,6.307-.328A5.571,5.571,0,0,0,718.034,404a8.225,8.225,0,0,0-4.838-8.031,21.464,21.464,0,0,0-5.293-1.089c-.413-.048-.83-.089-1.243-.133a38.722,38.722,0,0,1-7.891-1.4c-4.354-1.38-6.817-4.214-9.2-6.96-.5-.576-1.015-1.17-1.539-1.738-4.953-5.362-11.227-7.407-16.272-9.049-11.611-3.783-23.51-.521-31.441,2.883a87.132,87.132,0,0,0-14.818,8.282c-1.963,1.347-3.823,2.775-5.79,4.288l-.923.709a20.061,20.061,0,0,1-2.336,1.48,7.951,7.951,0,0,0-2.34,1.661c-.675,1-.535,2.421-.229,4.849.314,2.539.712,5.7,2.517,7.127.845.668,5.828,1.354,9.625,1.724a13.532,13.532,0,0,0-.151,6.163c-4.743-.472-11.412-1.561-13.3-3.055-3.783-3-4.4-7.928-4.806-11.19-.358-2.857-.764-6.094,1.233-9.06a12.1,12.1,0,0,1,4.4-3.576,15.582,15.582,0,0,0,1.635-1.015l.919-.7c1.945-1.494,3.957-3.044,6.057-4.48a92.805,92.805,0,0,1,15.877-8.865c12.77-5.48,25.144-6.543,35.777-3.078,5.422,1.761,12.851,4.181,18.888,10.725.591.638,1.137,1.269,1.669,1.882,2.074,2.383,3.713,4.266,6.411,5.122a33.5,33.5,0,0,0,6.676,1.14c.429.044.856.088,1.281.137a26.771,26.771,0,0,1,6.865,1.48" fill="#50cc1a"/>
    <path id="Path_12703" data-name="Path 12703" d="M759.087,424.912l-.832,2-.836-2h-.629v2.808h.462v-2.059l.849,2.059h.307l.849-2.063v2.063h.462v-2.808Zm.064.092-.857,2.055h-.075L757.354,425h-.47v2.625h.275v-2.234h.075l.02.028.908,2.207h.179l.92-2.234h.076l.008.047v2.187h.275V425Zm-.032-.048-.857,2.06h-.016l-.86-2.06h-.55v2.717h.371v-2.231h0l.92,2.231h.243l.92-2.231h0v2.231h.371v-2.717Zm-4.187,2.673h.275v-2.374h.877V425H754.06v.251h.872Zm1.2-2.326h-.872v2.37h-.371V425.3h-.872v-.347h2.115Zm-2.163-.391v.438h.877v2.37h.462v-2.37h.872v-.438Zm.1.092v.251h.872v2.374h.275v-2.374h.877V425Zm0,0v.251h.872v2.374h.275v-2.374h.877V425Zm0,0v.251h.872v2.374h.275v-2.374h.877V425Zm0,0v.251h.872v2.374h.275v-2.374h.877V425Z" transform="translate(-76.972 -30.033)" fill="#fff"/>
  </g>
</svg>
