<svg xmlns="http://www.w3.org/2000/svg" xmlns:xlink="http://www.w3.org/1999/xlink" width="2411.622" height="934.685" viewBox="0 0 2411.622 934.685">
  <defs>
    <clipPath id="clip-path">
      <rect id="Rectangle_1406" data-name="Rectangle 1406" width="2411.622" height="934.685" fill="#141414"/>
    </clipPath>
  </defs>
  <g id="Group_2921" data-name="Group 2921" opacity="0.075">
    <g id="Group_2919" data-name="Group 2919" clip-path="url(#clip-path)">
      <path id="Path_13049" data-name="Path 13049" d="M0,578.606V934.685H2411.619V578.606c-19.394-34.236-40.53-68.057-62.812-100.521a1364.383,1364.383,0,0,0-116.411-146.9,1249.886,1249.886,0,0,0-132.174-125.447,1069.867,1069.867,0,0,0-143.85-99.458C1845.1,42.548,1732.019,7.117,1620.248.966,1608.715.325,1596.954,0,1585.289,0c-3.925,0-7.919.039-11.876.113a611.856,611.856,0,0,0-157.369,23.663A637.239,637.239,0,0,0,1340,50.943a691.874,691.874,0,0,0-74.046,37.326c-39.82,23.147-78.727,47.87-116.35,71.774l-.525.332-.1.071-.378.248-.047.029c-117.309,74.529-228.106,144.918-357.38,168.813a604.46,604.46,0,0,1-97.587,9.878c-3.819.074-7.685.113-11.486.113-20.769,0-41.981-1.076-63.041-3.193a683.7,683.7,0,0,1-76.087-12.158,789.516,789.516,0,0,1-77.961-21.2c-26.067-8.5-53.021-18.7-80.135-30.335-30.4-13.054-61.639-28.276-92.841-45.241s-63.211-36.108-95.194-56.939c-31.877-20.767-64.651-43.827-97.4-68.533S33.258,50.293,0,21.888" transform="translate(0.003)" fill="#141414"/>
    </g>
  </g>
</svg>
