<svg xmlns="http://www.w3.org/2000/svg" xmlns:xlink="http://www.w3.org/1999/xlink" width="2386.638" height="791.374" viewBox="0 0 2386.638 791.374">
  <defs>
    <clipPath id="clip-path">
      <rect id="Rectangle_1406" data-name="Rectangle 1406" width="2386.638" height="791.374" fill="#00081a"/>
    </clipPath>
  </defs>
  <g id="Group_2972" data-name="Group 2972" transform="translate(-77.055)" opacity="0.061">
    <g id="Group_2919" data-name="Group 2919" transform="translate(77.055)" clip-path="url(#clip-path)">
      <path id="Path_13049" data-name="Path 13049" d="M2386.635,489.891V791.374H0V489.891c19.193-28.987,40.11-57.622,62.161-85.109A1205.046,1205.046,0,0,1,177.367,280.406a1179.188,1179.188,0,0,1,130.8-106.212,1079.958,1079.958,0,0,1,142.36-84.208C560.648,36.024,672.559,6.025,783.173.818,794.586.275,806.226,0,817.77,0c3.884,0,7.837.033,11.753.1a710.652,710.652,0,0,1,78.663,5.671A695.555,695.555,0,0,1,985.262,20.13a703.68,703.68,0,0,1,75.253,23,735.911,735.911,0,0,1,73.279,31.6c39.407,19.6,77.911,40.53,115.144,60.77l.52.281.1.06.375.21.046.025c116.094,63.1,225.743,122.7,353.677,142.929a696.047,696.047,0,0,0,96.576,8.363c3.779.063,7.605.1,11.367.1,20.554,0,41.547-.911,62.388-2.7q37.9-3.318,75.3-10.294c25.326-4.681,51.276-10.722,77.154-17.951,25.8-7.2,52.472-15.837,79.305-25.684,30.089-11.052,61-23.941,91.879-38.3s62.556-30.572,94.208-48.209c31.546-17.582,63.981-37.107,96.387-58.026s65.505-43.716,98.419-67.766" fill="#00081a"/>
    </g>
  </g>
</svg>
