<svg xmlns="http://www.w3.org/2000/svg" width="564" height="521.292" viewBox="0 0 564 521.292">
  <path id="Union_1" data-name="Union 1" d="M.5,0V197.329H0V520.223q2.839.07,5.676.068c1.535,0,3.1-.016,4.643-.048a217.409,217.409,0,0,0,31.1-2.912,219.369,219.369,0,0,0,30.471-7.378,233.287,233.287,0,0,0,29.748-11.821A260.925,260.925,0,0,0,130.611,481.9c15.576-10.071,30.8-20.822,45.521-31.218l.2-.144.039-.032.148-.112.018-.01c45.9-32.417,89.248-63.036,139.826-73.426a213.252,213.252,0,0,1,38.178-4.3c1.492-.031,3.008-.047,4.5-.047a222.237,222.237,0,0,1,24.664,1.39,242.638,242.638,0,0,1,29.77,5.288,284.413,284.413,0,0,1,30.5,9.218c10.2,3.7,20.748,8.137,31.357,13.2,11.895,5.676,24.111,12.3,36.32,19.678s24.734,15.7,37.246,24.769q6.993,5.06,14.105,10.522V197.329H374.5V0Z" transform="translate(563.5 520.792) rotate(180)" fill="#00081a" stroke="rgba(0,0,0,0)" stroke-width="1" opacity="0.06"/>
</svg>
