<svg xmlns="http://www.w3.org/2000/svg" width="1441" height="153.964" viewBox="0 0 1441 153.964">
  <path id="Intersection_4" data-name="Intersection 4" d="M0,152.964V66.775Q28.276,55.454,57.99,45.63C141.251,18.267,225.864,3.057,309.5.413,318.13.138,326.931,0,335.659,0c2.936,0,5.928.016,8.887.049q29.848.327,59.477,2.874c19.635,1.7,39.1,4.125,58.273,7.283q28.973,4.772,56.9,11.668,28.4,7.014,55.4,16.023c29.8,9.939,58.909,20.555,87.063,30.817l.393.142.073.032.283.105.037.012c87.778,32,170.684,62.222,267.414,72.484,24.137,2.547,48.545,3.964,73.019,4.238,2.857.033,5.753.049,8.595.049,15.542,0,31.416-.461,47.173-1.372q28.657-1.683,56.934-5.219c19.149-2.372,38.769-5.437,58.335-9.1,19.5-3.648,39.675-8.028,59.962-13.024,22.748-5.6,46.124-12.142,69.472-19.425s47.294-15.5,71.229-24.444c21.431-8.015,43.406-16.819,65.42-26.222v106Z" transform="translate(1440.5 153.464) rotate(180)" fill="#f4f3f6" stroke="rgba(0,0,0,0)" stroke-width="1"/>
</svg>
