<svg version="1.2" xmlns="http://www.w3.org/2000/svg" viewBox="0 0 1438 154" width="1438" height="154"><style>.a{fill:#fff}</style><path class="a" d="m1438.5 0.5v86.2q-28.3 11.3-58 21.1c-83.3 27.4-167.9 42.6-251.5 45.3-8.6 0.2-17.4 0.4-26.2 0.4-2.9 0-5.9-0.1-8.8-0.1q-29.9-0.3-59.5-2.9c-19.7-1.7-39.1-4.1-58.3-7.2q-29-4.8-56.9-11.7-28.4-7-55.4-16c-29.8-10-58.9-20.6-87.1-30.9l-0.4-0.1-0.3-0.1c-87.8-32-170.7-62.3-267.5-72.5-24.1-2.6-48.5-4-73-4.3-2.8 0-5.7 0-8.6 0-15.5 0-31.4 0.4-47.1 1.4q-28.7 1.6-57 5.2c-19.1 2.4-38.7 5.4-58.3 9.1-19.5 3.6-39.7 8-60 13-22.7 5.6-46.1 12.1-69.4 19.4-23.4 7.3-47.3 15.5-71.3 24.5-21.4 8-43.4 16.8-65.4 26.2v-106z"/></svg>