<svg xmlns="http://www.w3.org/2000/svg" xmlns:xlink="http://www.w3.org/1999/xlink" width="1456.652" height="514" viewBox="0 0 1456.652 514">
  <defs>
    <clipPath id="clip-path">
      <rect id="Rectangle_1406" data-name="Rectangle 1406" width="1456.652" height="514" fill="#574b7e"/>
    </clipPath>
  </defs>
  <g id="Group_2920" data-name="Group 2920" opacity="0.2">
    <g id="Group_2919" data-name="Group 2919" clip-path="url(#clip-path)">
      <path id="Path_13049" data-name="Path 13049" d="M1456.65,318.186V514H0V318.186c11.714-18.827,24.48-37.426,37.939-55.278a766.335,766.335,0,0,1,70.314-80.783,730.418,730.418,0,0,1,79.835-68.985,651.62,651.62,0,0,1,86.888-54.694C342.184,23.4,410.487,3.914,478,.531,484.965.179,492.069,0,499.115,0c2.37,0,4.783.021,7.173.062A408.041,408.041,0,0,1,554.3,3.745a401.626,401.626,0,0,1,47.042,9.329,410.5,410.5,0,0,1,45.929,14.94A435.316,435.316,0,0,1,692,48.541c24.052,12.729,47.552,26.325,70.277,39.47l.317.182.06.039.229.136.028.016c70.856,40.985,137.779,79.693,215.862,92.833a399.86,399.86,0,0,0,58.944,5.432c2.307.041,4.642.062,6.938.062,12.545,0,25.357-.592,38.078-1.756a450.633,450.633,0,0,0,45.958-6.686c15.457-3.04,31.3-6.964,47.09-11.659,15.745-4.674,32.026-10.286,48.4-16.682,18.365-7.179,37.231-15.55,56.077-24.879s38.18-19.856,57.5-31.312c19.254-11.42,39.05-24.1,58.829-37.688s39.98-28.394,60.069-44.014" transform="translate(0 0)" fill="#574b7e"/>
    </g>
  </g>
</svg>
